G04 #@! TF.GenerationSoftware,KiCad,Pcbnew,(5.1.2)-2*
G04 #@! TF.CreationDate,2021-03-26T10:36:19+01:00*
G04 #@! TF.ProjectId,Shield,53686965-6c64-42e6-9b69-6361645f7063,rev?*
G04 #@! TF.SameCoordinates,Original*
G04 #@! TF.FileFunction,Copper,L2,Bot*
G04 #@! TF.FilePolarity,Positive*
%FSLAX46Y46*%
G04 Gerber Fmt 4.6, Leading zero omitted, Abs format (unit mm)*
G04 Created by KiCad (PCBNEW (5.1.2)-2) date 2021-03-26 10:36:19*
%MOMM*%
%LPD*%
G04 APERTURE LIST*
%ADD10C,0.100000*%
%ADD11C,0.150000*%
%ADD12C,0.300000*%
%ADD13C,0.400000*%
%ADD14C,1.600000*%
%ADD15C,2.000000*%
%ADD16R,2.000000X2.000000*%
%ADD17O,1.600000X1.600000*%
%ADD18O,1.727200X2.032000*%
%ADD19C,4.064000*%
%ADD20C,0.500000*%
%ADD21C,0.254000*%
G04 APERTURE END LIST*
D10*
D11*
X177002200Y-166007200D02*
X177002200Y-198007200D01*
X285002200Y-198007200D01*
X285002200Y-166007200D01*
X177002200Y-166007200D01*
D10*
D11*
X10000000Y-10000000D02*
X10000000Y-200007200D01*
X287002200Y-200007200D01*
X287002200Y-10000000D01*
X10000000Y-10000000D01*
D10*
D11*
X12000000Y-12000000D02*
X12000000Y-198007200D01*
X285002200Y-198007200D01*
X285002200Y-12000000D01*
X12000000Y-12000000D01*
D10*
D11*
X60000000Y-12000000D02*
X60000000Y-10000000D01*
D10*
D11*
X110000000Y-12000000D02*
X110000000Y-10000000D01*
D10*
D11*
X160000000Y-12000000D02*
X160000000Y-10000000D01*
D10*
D11*
X210000000Y-12000000D02*
X210000000Y-10000000D01*
D10*
D11*
X260000000Y-12000000D02*
X260000000Y-10000000D01*
D10*
D11*
X36065476Y-11588095D02*
X35322619Y-11588095D01*
X35694047Y-11588095D02*
X35694047Y-10288095D01*
X35570238Y-10473809D01*
X35446428Y-10597619D01*
X35322619Y-10659523D01*
D10*
D11*
X85322619Y-10411904D02*
X85384523Y-10350000D01*
X85508333Y-10288095D01*
X85817857Y-10288095D01*
X85941666Y-10350000D01*
X86003571Y-10411904D01*
X86065476Y-10535714D01*
X86065476Y-10659523D01*
X86003571Y-10845238D01*
X85260714Y-11588095D01*
X86065476Y-11588095D01*
D10*
D11*
X135260714Y-10288095D02*
X136065476Y-10288095D01*
X135632142Y-10783333D01*
X135817857Y-10783333D01*
X135941666Y-10845238D01*
X136003571Y-10907142D01*
X136065476Y-11030952D01*
X136065476Y-11340476D01*
X136003571Y-11464285D01*
X135941666Y-11526190D01*
X135817857Y-11588095D01*
X135446428Y-11588095D01*
X135322619Y-11526190D01*
X135260714Y-11464285D01*
D10*
D11*
X185941666Y-10721428D02*
X185941666Y-11588095D01*
X185632142Y-10226190D02*
X185322619Y-11154761D01*
X186127380Y-11154761D01*
D10*
D11*
X236003571Y-10288095D02*
X235384523Y-10288095D01*
X235322619Y-10907142D01*
X235384523Y-10845238D01*
X235508333Y-10783333D01*
X235817857Y-10783333D01*
X235941666Y-10845238D01*
X236003571Y-10907142D01*
X236065476Y-11030952D01*
X236065476Y-11340476D01*
X236003571Y-11464285D01*
X235941666Y-11526190D01*
X235817857Y-11588095D01*
X235508333Y-11588095D01*
X235384523Y-11526190D01*
X235322619Y-11464285D01*
D10*
D11*
X285941666Y-10288095D02*
X285694047Y-10288095D01*
X285570238Y-10350000D01*
X285508333Y-10411904D01*
X285384523Y-10597619D01*
X285322619Y-10845238D01*
X285322619Y-11340476D01*
X285384523Y-11464285D01*
X285446428Y-11526190D01*
X285570238Y-11588095D01*
X285817857Y-11588095D01*
X285941666Y-11526190D01*
X286003571Y-11464285D01*
X286065476Y-11340476D01*
X286065476Y-11030952D01*
X286003571Y-10907142D01*
X285941666Y-10845238D01*
X285817857Y-10783333D01*
X285570238Y-10783333D01*
X285446428Y-10845238D01*
X285384523Y-10907142D01*
X285322619Y-11030952D01*
D10*
D11*
X60000000Y-198007200D02*
X60000000Y-200007200D01*
D10*
D11*
X110000000Y-198007200D02*
X110000000Y-200007200D01*
D10*
D11*
X160000000Y-198007200D02*
X160000000Y-200007200D01*
D10*
D11*
X210000000Y-198007200D02*
X210000000Y-200007200D01*
D10*
D11*
X260000000Y-198007200D02*
X260000000Y-200007200D01*
D10*
D11*
X36065476Y-199595295D02*
X35322619Y-199595295D01*
X35694047Y-199595295D02*
X35694047Y-198295295D01*
X35570238Y-198481009D01*
X35446428Y-198604819D01*
X35322619Y-198666723D01*
D10*
D11*
X85322619Y-198419104D02*
X85384523Y-198357200D01*
X85508333Y-198295295D01*
X85817857Y-198295295D01*
X85941666Y-198357200D01*
X86003571Y-198419104D01*
X86065476Y-198542914D01*
X86065476Y-198666723D01*
X86003571Y-198852438D01*
X85260714Y-199595295D01*
X86065476Y-199595295D01*
D10*
D11*
X135260714Y-198295295D02*
X136065476Y-198295295D01*
X135632142Y-198790533D01*
X135817857Y-198790533D01*
X135941666Y-198852438D01*
X136003571Y-198914342D01*
X136065476Y-199038152D01*
X136065476Y-199347676D01*
X136003571Y-199471485D01*
X135941666Y-199533390D01*
X135817857Y-199595295D01*
X135446428Y-199595295D01*
X135322619Y-199533390D01*
X135260714Y-199471485D01*
D10*
D11*
X185941666Y-198728628D02*
X185941666Y-199595295D01*
X185632142Y-198233390D02*
X185322619Y-199161961D01*
X186127380Y-199161961D01*
D10*
D11*
X236003571Y-198295295D02*
X235384523Y-198295295D01*
X235322619Y-198914342D01*
X235384523Y-198852438D01*
X235508333Y-198790533D01*
X235817857Y-198790533D01*
X235941666Y-198852438D01*
X236003571Y-198914342D01*
X236065476Y-199038152D01*
X236065476Y-199347676D01*
X236003571Y-199471485D01*
X235941666Y-199533390D01*
X235817857Y-199595295D01*
X235508333Y-199595295D01*
X235384523Y-199533390D01*
X235322619Y-199471485D01*
D10*
D11*
X285941666Y-198295295D02*
X285694047Y-198295295D01*
X285570238Y-198357200D01*
X285508333Y-198419104D01*
X285384523Y-198604819D01*
X285322619Y-198852438D01*
X285322619Y-199347676D01*
X285384523Y-199471485D01*
X285446428Y-199533390D01*
X285570238Y-199595295D01*
X285817857Y-199595295D01*
X285941666Y-199533390D01*
X286003571Y-199471485D01*
X286065476Y-199347676D01*
X286065476Y-199038152D01*
X286003571Y-198914342D01*
X285941666Y-198852438D01*
X285817857Y-198790533D01*
X285570238Y-198790533D01*
X285446428Y-198852438D01*
X285384523Y-198914342D01*
X285322619Y-199038152D01*
D10*
D11*
X10000000Y-60000000D02*
X12000000Y-60000000D01*
D10*
D11*
X10000000Y-110000000D02*
X12000000Y-110000000D01*
D10*
D11*
X10000000Y-160000000D02*
X12000000Y-160000000D01*
D10*
D11*
X10690476Y-35216666D02*
X11309523Y-35216666D01*
X10566666Y-35588095D02*
X11000000Y-34288095D01*
X11433333Y-35588095D01*
D10*
D11*
X11092857Y-84907142D02*
X11278571Y-84969047D01*
X11340476Y-85030952D01*
X11402380Y-85154761D01*
X11402380Y-85340476D01*
X11340476Y-85464285D01*
X11278571Y-85526190D01*
X11154761Y-85588095D01*
X10659523Y-85588095D01*
X10659523Y-84288095D01*
X11092857Y-84288095D01*
X11216666Y-84350000D01*
X11278571Y-84411904D01*
X11340476Y-84535714D01*
X11340476Y-84659523D01*
X11278571Y-84783333D01*
X11216666Y-84845238D01*
X11092857Y-84907142D01*
X10659523Y-84907142D01*
D10*
D11*
X11402380Y-135464285D02*
X11340476Y-135526190D01*
X11154761Y-135588095D01*
X11030952Y-135588095D01*
X10845238Y-135526190D01*
X10721428Y-135402380D01*
X10659523Y-135278571D01*
X10597619Y-135030952D01*
X10597619Y-134845238D01*
X10659523Y-134597619D01*
X10721428Y-134473809D01*
X10845238Y-134350000D01*
X11030952Y-134288095D01*
X11154761Y-134288095D01*
X11340476Y-134350000D01*
X11402380Y-134411904D01*
D10*
D11*
X10659523Y-185588095D02*
X10659523Y-184288095D01*
X10969047Y-184288095D01*
X11154761Y-184350000D01*
X11278571Y-184473809D01*
X11340476Y-184597619D01*
X11402380Y-184845238D01*
X11402380Y-185030952D01*
X11340476Y-185278571D01*
X11278571Y-185402380D01*
X11154761Y-185526190D01*
X10969047Y-185588095D01*
X10659523Y-185588095D01*
D10*
D11*
X287002200Y-60000000D02*
X285002200Y-60000000D01*
D10*
D11*
X287002200Y-110000000D02*
X285002200Y-110000000D01*
D10*
D11*
X287002200Y-160000000D02*
X285002200Y-160000000D01*
D10*
D11*
X285692676Y-35216666D02*
X286311723Y-35216666D01*
X285568866Y-35588095D02*
X286002200Y-34288095D01*
X286435533Y-35588095D01*
D10*
D11*
X286095057Y-84907142D02*
X286280771Y-84969047D01*
X286342676Y-85030952D01*
X286404580Y-85154761D01*
X286404580Y-85340476D01*
X286342676Y-85464285D01*
X286280771Y-85526190D01*
X286156961Y-85588095D01*
X285661723Y-85588095D01*
X285661723Y-84288095D01*
X286095057Y-84288095D01*
X286218866Y-84350000D01*
X286280771Y-84411904D01*
X286342676Y-84535714D01*
X286342676Y-84659523D01*
X286280771Y-84783333D01*
X286218866Y-84845238D01*
X286095057Y-84907142D01*
X285661723Y-84907142D01*
D10*
D11*
X286404580Y-135464285D02*
X286342676Y-135526190D01*
X286156961Y-135588095D01*
X286033152Y-135588095D01*
X285847438Y-135526190D01*
X285723628Y-135402380D01*
X285661723Y-135278571D01*
X285599819Y-135030952D01*
X285599819Y-134845238D01*
X285661723Y-134597619D01*
X285723628Y-134473809D01*
X285847438Y-134350000D01*
X286033152Y-134288095D01*
X286156961Y-134288095D01*
X286342676Y-134350000D01*
X286404580Y-134411904D01*
D10*
D11*
X285661723Y-185588095D02*
X285661723Y-184288095D01*
X285971247Y-184288095D01*
X286156961Y-184350000D01*
X286280771Y-184473809D01*
X286342676Y-184597619D01*
X286404580Y-184845238D01*
X286404580Y-185030952D01*
X286342676Y-185278571D01*
X286280771Y-185402380D01*
X286156961Y-185526190D01*
X285971247Y-185588095D01*
X285661723Y-185588095D01*
D10*
D11*
X200434342Y-193785771D02*
X200434342Y-192285771D01*
X200791485Y-192285771D01*
X201005771Y-192357200D01*
X201148628Y-192500057D01*
X201220057Y-192642914D01*
X201291485Y-192928628D01*
X201291485Y-193142914D01*
X201220057Y-193428628D01*
X201148628Y-193571485D01*
X201005771Y-193714342D01*
X200791485Y-193785771D01*
X200434342Y-193785771D01*
X202577200Y-193785771D02*
X202577200Y-193000057D01*
X202505771Y-192857200D01*
X202362914Y-192785771D01*
X202077200Y-192785771D01*
X201934342Y-192857200D01*
X202577200Y-193714342D02*
X202434342Y-193785771D01*
X202077200Y-193785771D01*
X201934342Y-193714342D01*
X201862914Y-193571485D01*
X201862914Y-193428628D01*
X201934342Y-193285771D01*
X202077200Y-193214342D01*
X202434342Y-193214342D01*
X202577200Y-193142914D01*
X203077200Y-192785771D02*
X203648628Y-192785771D01*
X203291485Y-192285771D02*
X203291485Y-193571485D01*
X203362914Y-193714342D01*
X203505771Y-193785771D01*
X203648628Y-193785771D01*
X204720057Y-193714342D02*
X204577200Y-193785771D01*
X204291485Y-193785771D01*
X204148628Y-193714342D01*
X204077200Y-193571485D01*
X204077200Y-193000057D01*
X204148628Y-192857200D01*
X204291485Y-192785771D01*
X204577200Y-192785771D01*
X204720057Y-192857200D01*
X204791485Y-193000057D01*
X204791485Y-193142914D01*
X204077200Y-193285771D01*
X205434342Y-193642914D02*
X205505771Y-193714342D01*
X205434342Y-193785771D01*
X205362914Y-193714342D01*
X205434342Y-193642914D01*
X205434342Y-193785771D01*
X205434342Y-192857200D02*
X205505771Y-192928628D01*
X205434342Y-193000057D01*
X205362914Y-192928628D01*
X205434342Y-192857200D01*
X205434342Y-193000057D01*
X207505771Y-193785771D02*
X207362914Y-193714342D01*
X207291485Y-193571485D01*
X207291485Y-192285771D01*
X208720057Y-192785771D02*
X208720057Y-193785771D01*
X208077200Y-192785771D02*
X208077200Y-193571485D01*
X208148628Y-193714342D01*
X208291485Y-193785771D01*
X208505771Y-193785771D01*
X208648628Y-193714342D01*
X208720057Y-193642914D01*
X209434342Y-192785771D02*
X209434342Y-193785771D01*
X209434342Y-192928628D02*
X209505771Y-192857200D01*
X209648628Y-192785771D01*
X209862914Y-192785771D01*
X210005771Y-192857200D01*
X210077200Y-193000057D01*
X210077200Y-193785771D01*
X210791485Y-193642914D02*
X210862914Y-193714342D01*
X210791485Y-193785771D01*
X210720057Y-193714342D01*
X210791485Y-193642914D01*
X210791485Y-193785771D01*
X212505771Y-192285771D02*
X213434342Y-192285771D01*
X212934342Y-192857200D01*
X213148628Y-192857200D01*
X213291485Y-192928628D01*
X213362914Y-193000057D01*
X213434342Y-193142914D01*
X213434342Y-193500057D01*
X213362914Y-193642914D01*
X213291485Y-193714342D01*
X213148628Y-193785771D01*
X212720057Y-193785771D01*
X212577200Y-193714342D01*
X212505771Y-193642914D01*
X214362914Y-192285771D02*
X214505771Y-192285771D01*
X214648628Y-192357200D01*
X214720057Y-192428628D01*
X214791485Y-192571485D01*
X214862914Y-192857200D01*
X214862914Y-193214342D01*
X214791485Y-193500057D01*
X214720057Y-193642914D01*
X214648628Y-193714342D01*
X214505771Y-193785771D01*
X214362914Y-193785771D01*
X214220057Y-193714342D01*
X214148628Y-193642914D01*
X214077200Y-193500057D01*
X214005771Y-193214342D01*
X214005771Y-192857200D01*
X214077200Y-192571485D01*
X214148628Y-192428628D01*
X214220057Y-192357200D01*
X214362914Y-192285771D01*
X216648628Y-193785771D02*
X216648628Y-192785771D01*
X216648628Y-192928628D02*
X216720057Y-192857200D01*
X216862914Y-192785771D01*
X217077200Y-192785771D01*
X217220057Y-192857200D01*
X217291485Y-193000057D01*
X217291485Y-193785771D01*
X217291485Y-193000057D02*
X217362914Y-192857200D01*
X217505771Y-192785771D01*
X217720057Y-192785771D01*
X217862914Y-192857200D01*
X217934342Y-193000057D01*
X217934342Y-193785771D01*
X219291485Y-193785771D02*
X219291485Y-193000057D01*
X219220057Y-192857200D01*
X219077200Y-192785771D01*
X218791485Y-192785771D01*
X218648628Y-192857200D01*
X219291485Y-193714342D02*
X219148628Y-193785771D01*
X218791485Y-193785771D01*
X218648628Y-193714342D01*
X218577200Y-193571485D01*
X218577200Y-193428628D01*
X218648628Y-193285771D01*
X218791485Y-193214342D01*
X219148628Y-193214342D01*
X219291485Y-193142914D01*
X220005771Y-193785771D02*
X220005771Y-192785771D01*
X220005771Y-193071485D02*
X220077200Y-192928628D01*
X220148628Y-192857200D01*
X220291485Y-192785771D01*
X220434342Y-192785771D01*
X220862914Y-193714342D02*
X221005771Y-193785771D01*
X221291485Y-193785771D01*
X221434342Y-193714342D01*
X221505771Y-193571485D01*
X221505771Y-193500057D01*
X221434342Y-193357200D01*
X221291485Y-193285771D01*
X221077200Y-193285771D01*
X220934342Y-193214342D01*
X220862914Y-193071485D01*
X220862914Y-193000057D01*
X220934342Y-192857200D01*
X221077200Y-192785771D01*
X221291485Y-192785771D01*
X221434342Y-192857200D01*
X223220057Y-192428628D02*
X223291485Y-192357200D01*
X223434342Y-192285771D01*
X223791485Y-192285771D01*
X223934342Y-192357200D01*
X224005771Y-192428628D01*
X224077200Y-192571485D01*
X224077200Y-192714342D01*
X224005771Y-192928628D01*
X223148628Y-193785771D01*
X224077200Y-193785771D01*
X225005771Y-192285771D02*
X225148628Y-192285771D01*
X225291485Y-192357200D01*
X225362914Y-192428628D01*
X225434342Y-192571485D01*
X225505771Y-192857200D01*
X225505771Y-193214342D01*
X225434342Y-193500057D01*
X225362914Y-193642914D01*
X225291485Y-193714342D01*
X225148628Y-193785771D01*
X225005771Y-193785771D01*
X224862914Y-193714342D01*
X224791485Y-193642914D01*
X224720057Y-193500057D01*
X224648628Y-193214342D01*
X224648628Y-192857200D01*
X224720057Y-192571485D01*
X224791485Y-192428628D01*
X224862914Y-192357200D01*
X225005771Y-192285771D01*
X226934342Y-193785771D02*
X226077200Y-193785771D01*
X226505771Y-193785771D02*
X226505771Y-192285771D01*
X226362914Y-192500057D01*
X226220057Y-192642914D01*
X226077200Y-192714342D01*
X228291485Y-192285771D02*
X227577200Y-192285771D01*
X227505771Y-193000057D01*
X227577200Y-192928628D01*
X227720057Y-192857200D01*
X228077200Y-192857200D01*
X228220057Y-192928628D01*
X228291485Y-193000057D01*
X228362914Y-193142914D01*
X228362914Y-193500057D01*
X228291485Y-193642914D01*
X228220057Y-193714342D01*
X228077200Y-193785771D01*
X227720057Y-193785771D01*
X227577200Y-193714342D01*
X227505771Y-193642914D01*
D10*
D11*
X177002200Y-194507200D02*
X285002200Y-194507200D01*
D10*
D11*
X178434342Y-196585771D02*
X178434342Y-195085771D01*
X179291485Y-196585771D02*
X178648628Y-195728628D01*
X179291485Y-195085771D02*
X178434342Y-195942914D01*
X179934342Y-196585771D02*
X179934342Y-195585771D01*
X179934342Y-195085771D02*
X179862914Y-195157200D01*
X179934342Y-195228628D01*
X180005771Y-195157200D01*
X179934342Y-195085771D01*
X179934342Y-195228628D01*
X181505771Y-196442914D02*
X181434342Y-196514342D01*
X181220057Y-196585771D01*
X181077200Y-196585771D01*
X180862914Y-196514342D01*
X180720057Y-196371485D01*
X180648628Y-196228628D01*
X180577200Y-195942914D01*
X180577200Y-195728628D01*
X180648628Y-195442914D01*
X180720057Y-195300057D01*
X180862914Y-195157200D01*
X181077200Y-195085771D01*
X181220057Y-195085771D01*
X181434342Y-195157200D01*
X181505771Y-195228628D01*
X182791485Y-196585771D02*
X182791485Y-195800057D01*
X182720057Y-195657200D01*
X182577200Y-195585771D01*
X182291485Y-195585771D01*
X182148628Y-195657200D01*
X182791485Y-196514342D02*
X182648628Y-196585771D01*
X182291485Y-196585771D01*
X182148628Y-196514342D01*
X182077200Y-196371485D01*
X182077200Y-196228628D01*
X182148628Y-196085771D01*
X182291485Y-196014342D01*
X182648628Y-196014342D01*
X182791485Y-195942914D01*
X184148628Y-196585771D02*
X184148628Y-195085771D01*
X184148628Y-196514342D02*
X184005771Y-196585771D01*
X183720057Y-196585771D01*
X183577200Y-196514342D01*
X183505771Y-196442914D01*
X183434342Y-196300057D01*
X183434342Y-195871485D01*
X183505771Y-195728628D01*
X183577200Y-195657200D01*
X183720057Y-195585771D01*
X184005771Y-195585771D01*
X184148628Y-195657200D01*
X186005771Y-195800057D02*
X186505771Y-195800057D01*
X186720057Y-196585771D02*
X186005771Y-196585771D01*
X186005771Y-195085771D01*
X186720057Y-195085771D01*
X187362914Y-196442914D02*
X187434342Y-196514342D01*
X187362914Y-196585771D01*
X187291485Y-196514342D01*
X187362914Y-196442914D01*
X187362914Y-196585771D01*
X188077200Y-196585771D02*
X188077200Y-195085771D01*
X188434342Y-195085771D01*
X188648628Y-195157200D01*
X188791485Y-195300057D01*
X188862914Y-195442914D01*
X188934342Y-195728628D01*
X188934342Y-195942914D01*
X188862914Y-196228628D01*
X188791485Y-196371485D01*
X188648628Y-196514342D01*
X188434342Y-196585771D01*
X188077200Y-196585771D01*
X189577200Y-196442914D02*
X189648628Y-196514342D01*
X189577200Y-196585771D01*
X189505771Y-196514342D01*
X189577200Y-196442914D01*
X189577200Y-196585771D01*
X190220057Y-196157200D02*
X190934342Y-196157200D01*
X190077200Y-196585771D02*
X190577200Y-195085771D01*
X191077200Y-196585771D01*
X191577200Y-196442914D02*
X191648628Y-196514342D01*
X191577200Y-196585771D01*
X191505771Y-196514342D01*
X191577200Y-196442914D01*
X191577200Y-196585771D01*
X194577200Y-196585771D02*
X194577200Y-195085771D01*
X194720057Y-196014342D02*
X195148628Y-196585771D01*
X195148628Y-195585771D02*
X194577200Y-196157200D01*
X195791485Y-196585771D02*
X195791485Y-195585771D01*
X195791485Y-195085771D02*
X195720057Y-195157200D01*
X195791485Y-195228628D01*
X195862914Y-195157200D01*
X195791485Y-195085771D01*
X195791485Y-195228628D01*
X197148628Y-196514342D02*
X197005771Y-196585771D01*
X196720057Y-196585771D01*
X196577200Y-196514342D01*
X196505771Y-196442914D01*
X196434342Y-196300057D01*
X196434342Y-195871485D01*
X196505771Y-195728628D01*
X196577200Y-195657200D01*
X196720057Y-195585771D01*
X197005771Y-195585771D01*
X197148628Y-195657200D01*
X198434342Y-196585771D02*
X198434342Y-195800057D01*
X198362914Y-195657200D01*
X198220057Y-195585771D01*
X197934342Y-195585771D01*
X197791485Y-195657200D01*
X198434342Y-196514342D02*
X198291485Y-196585771D01*
X197934342Y-196585771D01*
X197791485Y-196514342D01*
X197720057Y-196371485D01*
X197720057Y-196228628D01*
X197791485Y-196085771D01*
X197934342Y-196014342D01*
X198291485Y-196014342D01*
X198434342Y-195942914D01*
X199791485Y-196585771D02*
X199791485Y-195085771D01*
X199791485Y-196514342D02*
X199648628Y-196585771D01*
X199362914Y-196585771D01*
X199220057Y-196514342D01*
X199148628Y-196442914D01*
X199077200Y-196300057D01*
X199077200Y-195871485D01*
X199148628Y-195728628D01*
X199220057Y-195657200D01*
X199362914Y-195585771D01*
X199648628Y-195585771D01*
X199791485Y-195657200D01*
X202077200Y-197157200D02*
X202005771Y-197085771D01*
X201862914Y-196871485D01*
X201791485Y-196728628D01*
X201720057Y-196514342D01*
X201648628Y-196157200D01*
X201648628Y-195871485D01*
X201720057Y-195514342D01*
X201791485Y-195300057D01*
X201862914Y-195157200D01*
X202005771Y-194942914D01*
X202077200Y-194871485D01*
X203362914Y-195085771D02*
X202648628Y-195085771D01*
X202577200Y-195800057D01*
X202648628Y-195728628D01*
X202791485Y-195657200D01*
X203148628Y-195657200D01*
X203291485Y-195728628D01*
X203362914Y-195800057D01*
X203434342Y-195942914D01*
X203434342Y-196300057D01*
X203362914Y-196442914D01*
X203291485Y-196514342D01*
X203148628Y-196585771D01*
X202791485Y-196585771D01*
X202648628Y-196514342D01*
X202577200Y-196442914D01*
X204077200Y-196442914D02*
X204148628Y-196514342D01*
X204077200Y-196585771D01*
X204005771Y-196514342D01*
X204077200Y-196442914D01*
X204077200Y-196585771D01*
X205577200Y-196585771D02*
X204720057Y-196585771D01*
X205148628Y-196585771D02*
X205148628Y-195085771D01*
X205005771Y-195300057D01*
X204862914Y-195442914D01*
X204720057Y-195514342D01*
X206220057Y-196442914D02*
X206291485Y-196514342D01*
X206220057Y-196585771D01*
X206148628Y-196514342D01*
X206220057Y-196442914D01*
X206220057Y-196585771D01*
X206862914Y-195228628D02*
X206934342Y-195157200D01*
X207077200Y-195085771D01*
X207434342Y-195085771D01*
X207577200Y-195157200D01*
X207648628Y-195228628D01*
X207720057Y-195371485D01*
X207720057Y-195514342D01*
X207648628Y-195728628D01*
X206791485Y-196585771D01*
X207720057Y-196585771D01*
X208220057Y-197157200D02*
X208291485Y-197085771D01*
X208434342Y-196871485D01*
X208505771Y-196728628D01*
X208577200Y-196514342D01*
X208648628Y-196157200D01*
X208648628Y-195871485D01*
X208577200Y-195514342D01*
X208505771Y-195300057D01*
X208434342Y-195157200D01*
X208291485Y-194942914D01*
X208220057Y-194871485D01*
X209362914Y-196014342D02*
X210505771Y-196014342D01*
X211148628Y-195228628D02*
X211220057Y-195157200D01*
X211362914Y-195085771D01*
X211720057Y-195085771D01*
X211862914Y-195157200D01*
X211934342Y-195228628D01*
X212005771Y-195371485D01*
X212005771Y-195514342D01*
X211934342Y-195728628D01*
X211077200Y-196585771D01*
X212005771Y-196585771D01*
D10*
D11*
X177002200Y-191507200D02*
X285002200Y-191507200D01*
D10*
D12*
X264411485Y-193785771D02*
X263911485Y-193071485D01*
X263554342Y-193785771D02*
X263554342Y-192285771D01*
X264125771Y-192285771D01*
X264268628Y-192357200D01*
X264340057Y-192428628D01*
X264411485Y-192571485D01*
X264411485Y-192785771D01*
X264340057Y-192928628D01*
X264268628Y-193000057D01*
X264125771Y-193071485D01*
X263554342Y-193071485D01*
X265625771Y-193714342D02*
X265482914Y-193785771D01*
X265197200Y-193785771D01*
X265054342Y-193714342D01*
X264982914Y-193571485D01*
X264982914Y-193000057D01*
X265054342Y-192857200D01*
X265197200Y-192785771D01*
X265482914Y-192785771D01*
X265625771Y-192857200D01*
X265697200Y-193000057D01*
X265697200Y-193142914D01*
X264982914Y-193285771D01*
X266197200Y-192785771D02*
X266554342Y-193785771D01*
X266911485Y-192785771D01*
X267482914Y-193642914D02*
X267554342Y-193714342D01*
X267482914Y-193785771D01*
X267411485Y-193714342D01*
X267482914Y-193642914D01*
X267482914Y-193785771D01*
X267482914Y-192857200D02*
X267554342Y-192928628D01*
X267482914Y-193000057D01*
X267411485Y-192928628D01*
X267482914Y-192857200D01*
X267482914Y-193000057D01*
D10*
D11*
X178362914Y-193714342D02*
X178577200Y-193785771D01*
X178934342Y-193785771D01*
X179077200Y-193714342D01*
X179148628Y-193642914D01*
X179220057Y-193500057D01*
X179220057Y-193357200D01*
X179148628Y-193214342D01*
X179077200Y-193142914D01*
X178934342Y-193071485D01*
X178648628Y-193000057D01*
X178505771Y-192928628D01*
X178434342Y-192857200D01*
X178362914Y-192714342D01*
X178362914Y-192571485D01*
X178434342Y-192428628D01*
X178505771Y-192357200D01*
X178648628Y-192285771D01*
X179005771Y-192285771D01*
X179220057Y-192357200D01*
X179862914Y-193785771D02*
X179862914Y-192785771D01*
X179862914Y-192285771D02*
X179791485Y-192357200D01*
X179862914Y-192428628D01*
X179934342Y-192357200D01*
X179862914Y-192285771D01*
X179862914Y-192428628D01*
X180434342Y-192785771D02*
X181220057Y-192785771D01*
X180434342Y-193785771D01*
X181220057Y-193785771D01*
X182362914Y-193714342D02*
X182220057Y-193785771D01*
X181934342Y-193785771D01*
X181791485Y-193714342D01*
X181720057Y-193571485D01*
X181720057Y-193000057D01*
X181791485Y-192857200D01*
X181934342Y-192785771D01*
X182220057Y-192785771D01*
X182362914Y-192857200D01*
X182434342Y-193000057D01*
X182434342Y-193142914D01*
X181720057Y-193285771D01*
X183077200Y-193642914D02*
X183148628Y-193714342D01*
X183077200Y-193785771D01*
X183005771Y-193714342D01*
X183077200Y-193642914D01*
X183077200Y-193785771D01*
X183077200Y-192857200D02*
X183148628Y-192928628D01*
X183077200Y-193000057D01*
X183005771Y-192928628D01*
X183077200Y-192857200D01*
X183077200Y-193000057D01*
X184862914Y-193357200D02*
X185577200Y-193357200D01*
X184720057Y-193785771D02*
X185220057Y-192285771D01*
X185720057Y-193785771D01*
X186862914Y-192785771D02*
X186862914Y-193785771D01*
X186505771Y-192214342D02*
X186148628Y-193285771D01*
X187077200Y-193285771D01*
D10*
D11*
X263434342Y-196585771D02*
X263434342Y-195085771D01*
X264791485Y-196585771D02*
X264791485Y-195085771D01*
X264791485Y-196514342D02*
X264648628Y-196585771D01*
X264362914Y-196585771D01*
X264220057Y-196514342D01*
X264148628Y-196442914D01*
X264077200Y-196300057D01*
X264077200Y-195871485D01*
X264148628Y-195728628D01*
X264220057Y-195657200D01*
X264362914Y-195585771D01*
X264648628Y-195585771D01*
X264791485Y-195657200D01*
X265505771Y-196442914D02*
X265577200Y-196514342D01*
X265505771Y-196585771D01*
X265434342Y-196514342D01*
X265505771Y-196442914D01*
X265505771Y-196585771D01*
X265505771Y-195657200D02*
X265577200Y-195728628D01*
X265505771Y-195800057D01*
X265434342Y-195728628D01*
X265505771Y-195657200D01*
X265505771Y-195800057D01*
X268148628Y-196585771D02*
X267291485Y-196585771D01*
X267720057Y-196585771D02*
X267720057Y-195085771D01*
X267577200Y-195300057D01*
X267434342Y-195442914D01*
X267291485Y-195514342D01*
X269862914Y-195014342D02*
X268577200Y-196942914D01*
X271148628Y-196585771D02*
X270291485Y-196585771D01*
X270720057Y-196585771D02*
X270720057Y-195085771D01*
X270577200Y-195300057D01*
X270434342Y-195442914D01*
X270291485Y-195514342D01*
D10*
D11*
X177002200Y-187507200D02*
X285002200Y-187507200D01*
D10*
D13*
X178714580Y-188211961D02*
X179857438Y-188211961D01*
X179036009Y-190211961D02*
X179286009Y-188211961D01*
X180274104Y-190211961D02*
X180440771Y-188878628D01*
X180524104Y-188211961D02*
X180416961Y-188307200D01*
X180500295Y-188402438D01*
X180607438Y-188307200D01*
X180524104Y-188211961D01*
X180500295Y-188402438D01*
X181107438Y-188878628D02*
X181869342Y-188878628D01*
X181476485Y-188211961D02*
X181262200Y-189926247D01*
X181333628Y-190116723D01*
X181512200Y-190211961D01*
X181702676Y-190211961D01*
X182655057Y-190211961D02*
X182476485Y-190116723D01*
X182405057Y-189926247D01*
X182619342Y-188211961D01*
X184190771Y-190116723D02*
X183988390Y-190211961D01*
X183607438Y-190211961D01*
X183428866Y-190116723D01*
X183357438Y-189926247D01*
X183452676Y-189164342D01*
X183571723Y-188973866D01*
X183774104Y-188878628D01*
X184155057Y-188878628D01*
X184333628Y-188973866D01*
X184405057Y-189164342D01*
X184381247Y-189354819D01*
X183405057Y-189545295D01*
X185155057Y-190021485D02*
X185238390Y-190116723D01*
X185131247Y-190211961D01*
X185047914Y-190116723D01*
X185155057Y-190021485D01*
X185131247Y-190211961D01*
X185286009Y-188973866D02*
X185369342Y-189069104D01*
X185262200Y-189164342D01*
X185178866Y-189069104D01*
X185286009Y-188973866D01*
X185262200Y-189164342D01*
D10*
D11*
X178934342Y-185600057D02*
X178434342Y-185600057D01*
X178434342Y-186385771D02*
X178434342Y-184885771D01*
X179148628Y-184885771D01*
X179720057Y-186385771D02*
X179720057Y-185385771D01*
X179720057Y-184885771D02*
X179648628Y-184957200D01*
X179720057Y-185028628D01*
X179791485Y-184957200D01*
X179720057Y-184885771D01*
X179720057Y-185028628D01*
X180648628Y-186385771D02*
X180505771Y-186314342D01*
X180434342Y-186171485D01*
X180434342Y-184885771D01*
X181791485Y-186314342D02*
X181648628Y-186385771D01*
X181362914Y-186385771D01*
X181220057Y-186314342D01*
X181148628Y-186171485D01*
X181148628Y-185600057D01*
X181220057Y-185457200D01*
X181362914Y-185385771D01*
X181648628Y-185385771D01*
X181791485Y-185457200D01*
X181862914Y-185600057D01*
X181862914Y-185742914D01*
X181148628Y-185885771D01*
X182505771Y-186242914D02*
X182577200Y-186314342D01*
X182505771Y-186385771D01*
X182434342Y-186314342D01*
X182505771Y-186242914D01*
X182505771Y-186385771D01*
X182505771Y-185457200D02*
X182577200Y-185528628D01*
X182505771Y-185600057D01*
X182434342Y-185528628D01*
X182505771Y-185457200D01*
X182505771Y-185600057D01*
X184291485Y-186314342D02*
X184505771Y-186385771D01*
X184862914Y-186385771D01*
X185005771Y-186314342D01*
X185077200Y-186242914D01*
X185148628Y-186100057D01*
X185148628Y-185957200D01*
X185077200Y-185814342D01*
X185005771Y-185742914D01*
X184862914Y-185671485D01*
X184577200Y-185600057D01*
X184434342Y-185528628D01*
X184362914Y-185457200D01*
X184291485Y-185314342D01*
X184291485Y-185171485D01*
X184362914Y-185028628D01*
X184434342Y-184957200D01*
X184577200Y-184885771D01*
X184934342Y-184885771D01*
X185148628Y-184957200D01*
X185791485Y-186385771D02*
X185791485Y-184885771D01*
X186434342Y-186385771D02*
X186434342Y-185600057D01*
X186362914Y-185457200D01*
X186220057Y-185385771D01*
X186005771Y-185385771D01*
X185862914Y-185457200D01*
X185791485Y-185528628D01*
X187148628Y-186385771D02*
X187148628Y-185385771D01*
X187148628Y-184885771D02*
X187077200Y-184957200D01*
X187148628Y-185028628D01*
X187220057Y-184957200D01*
X187148628Y-184885771D01*
X187148628Y-185028628D01*
X188434342Y-186314342D02*
X188291485Y-186385771D01*
X188005771Y-186385771D01*
X187862914Y-186314342D01*
X187791485Y-186171485D01*
X187791485Y-185600057D01*
X187862914Y-185457200D01*
X188005771Y-185385771D01*
X188291485Y-185385771D01*
X188434342Y-185457200D01*
X188505771Y-185600057D01*
X188505771Y-185742914D01*
X187791485Y-185885771D01*
X189362914Y-186385771D02*
X189220057Y-186314342D01*
X189148628Y-186171485D01*
X189148628Y-184885771D01*
X190577200Y-186385771D02*
X190577200Y-184885771D01*
X190577200Y-186314342D02*
X190434342Y-186385771D01*
X190148628Y-186385771D01*
X190005771Y-186314342D01*
X189934342Y-186242914D01*
X189862914Y-186100057D01*
X189862914Y-185671485D01*
X189934342Y-185528628D01*
X190005771Y-185457200D01*
X190148628Y-185385771D01*
X190434342Y-185385771D01*
X190577200Y-185457200D01*
X191291485Y-186242914D02*
X191362914Y-186314342D01*
X191291485Y-186385771D01*
X191220057Y-186314342D01*
X191291485Y-186242914D01*
X191291485Y-186385771D01*
X192005771Y-186385771D02*
X192005771Y-184885771D01*
X192148628Y-185814342D02*
X192577200Y-186385771D01*
X192577200Y-185385771D02*
X192005771Y-185957200D01*
X193220057Y-186385771D02*
X193220057Y-185385771D01*
X193220057Y-184885771D02*
X193148628Y-184957200D01*
X193220057Y-185028628D01*
X193291485Y-184957200D01*
X193220057Y-184885771D01*
X193220057Y-185028628D01*
X194577200Y-186314342D02*
X194434342Y-186385771D01*
X194148628Y-186385771D01*
X194005771Y-186314342D01*
X193934342Y-186242914D01*
X193862914Y-186100057D01*
X193862914Y-185671485D01*
X193934342Y-185528628D01*
X194005771Y-185457200D01*
X194148628Y-185385771D01*
X194434342Y-185385771D01*
X194577200Y-185457200D01*
X195862914Y-186385771D02*
X195862914Y-185600057D01*
X195791485Y-185457200D01*
X195648628Y-185385771D01*
X195362914Y-185385771D01*
X195220057Y-185457200D01*
X195862914Y-186314342D02*
X195720057Y-186385771D01*
X195362914Y-186385771D01*
X195220057Y-186314342D01*
X195148628Y-186171485D01*
X195148628Y-186028628D01*
X195220057Y-185885771D01*
X195362914Y-185814342D01*
X195720057Y-185814342D01*
X195862914Y-185742914D01*
X197220057Y-186385771D02*
X197220057Y-184885771D01*
X197220057Y-186314342D02*
X197077200Y-186385771D01*
X196791485Y-186385771D01*
X196648628Y-186314342D01*
X196577200Y-186242914D01*
X196505771Y-186100057D01*
X196505771Y-185671485D01*
X196577200Y-185528628D01*
X196648628Y-185457200D01*
X196791485Y-185385771D01*
X197077200Y-185385771D01*
X197220057Y-185457200D01*
X197577200Y-186528628D02*
X198720057Y-186528628D01*
X199077200Y-185385771D02*
X199077200Y-186885771D01*
X199077200Y-185457200D02*
X199220057Y-185385771D01*
X199505771Y-185385771D01*
X199648628Y-185457200D01*
X199720057Y-185528628D01*
X199791485Y-185671485D01*
X199791485Y-186100057D01*
X199720057Y-186242914D01*
X199648628Y-186314342D01*
X199505771Y-186385771D01*
X199220057Y-186385771D01*
X199077200Y-186314342D01*
X201077200Y-186314342D02*
X200934342Y-186385771D01*
X200648628Y-186385771D01*
X200505771Y-186314342D01*
X200434342Y-186242914D01*
X200362914Y-186100057D01*
X200362914Y-185671485D01*
X200434342Y-185528628D01*
X200505771Y-185457200D01*
X200648628Y-185385771D01*
X200934342Y-185385771D01*
X201077200Y-185457200D01*
X201720057Y-186385771D02*
X201720057Y-184885771D01*
X201720057Y-185457200D02*
X201862914Y-185385771D01*
X202148628Y-185385771D01*
X202291485Y-185457200D01*
X202362914Y-185528628D01*
X202434342Y-185671485D01*
X202434342Y-186100057D01*
X202362914Y-186242914D01*
X202291485Y-186314342D01*
X202148628Y-186385771D01*
X201862914Y-186385771D01*
X201720057Y-186314342D01*
D10*
D11*
X177002200Y-181507200D02*
X285002200Y-181507200D01*
D10*
D11*
X178362914Y-183614342D02*
X178577200Y-183685771D01*
X178934342Y-183685771D01*
X179077200Y-183614342D01*
X179148628Y-183542914D01*
X179220057Y-183400057D01*
X179220057Y-183257200D01*
X179148628Y-183114342D01*
X179077200Y-183042914D01*
X178934342Y-182971485D01*
X178648628Y-182900057D01*
X178505771Y-182828628D01*
X178434342Y-182757200D01*
X178362914Y-182614342D01*
X178362914Y-182471485D01*
X178434342Y-182328628D01*
X178505771Y-182257200D01*
X178648628Y-182185771D01*
X179005771Y-182185771D01*
X179220057Y-182257200D01*
X179862914Y-183685771D02*
X179862914Y-182185771D01*
X180505771Y-183685771D02*
X180505771Y-182900057D01*
X180434342Y-182757200D01*
X180291485Y-182685771D01*
X180077200Y-182685771D01*
X179934342Y-182757200D01*
X179862914Y-182828628D01*
X181791485Y-183614342D02*
X181648628Y-183685771D01*
X181362914Y-183685771D01*
X181220057Y-183614342D01*
X181148628Y-183471485D01*
X181148628Y-182900057D01*
X181220057Y-182757200D01*
X181362914Y-182685771D01*
X181648628Y-182685771D01*
X181791485Y-182757200D01*
X181862914Y-182900057D01*
X181862914Y-183042914D01*
X181148628Y-183185771D01*
X183077200Y-183614342D02*
X182934342Y-183685771D01*
X182648628Y-183685771D01*
X182505771Y-183614342D01*
X182434342Y-183471485D01*
X182434342Y-182900057D01*
X182505771Y-182757200D01*
X182648628Y-182685771D01*
X182934342Y-182685771D01*
X183077200Y-182757200D01*
X183148628Y-182900057D01*
X183148628Y-183042914D01*
X182434342Y-183185771D01*
X183577200Y-182685771D02*
X184148628Y-182685771D01*
X183791485Y-182185771D02*
X183791485Y-183471485D01*
X183862914Y-183614342D01*
X184005771Y-183685771D01*
X184148628Y-183685771D01*
X184648628Y-183542914D02*
X184720057Y-183614342D01*
X184648628Y-183685771D01*
X184577200Y-183614342D01*
X184648628Y-183542914D01*
X184648628Y-183685771D01*
X184648628Y-182757200D02*
X184720057Y-182828628D01*
X184648628Y-182900057D01*
X184577200Y-182828628D01*
X184648628Y-182757200D01*
X184648628Y-182900057D01*
D10*
D11*
X197002200Y-191507200D02*
X197002200Y-194507200D01*
D10*
D11*
X261002200Y-191507200D02*
X261002200Y-198007200D01*
D12*
X135176571Y-83293571D02*
X135176571Y-81793571D01*
X134605142Y-81793571D01*
X134462285Y-81865000D01*
X134390857Y-81936428D01*
X134319428Y-82079285D01*
X134319428Y-82293571D01*
X134390857Y-82436428D01*
X134462285Y-82507857D01*
X134605142Y-82579285D01*
X135176571Y-82579285D01*
X133676571Y-83293571D02*
X133676571Y-82293571D01*
X133676571Y-81793571D02*
X133748000Y-81865000D01*
X133676571Y-81936428D01*
X133605142Y-81865000D01*
X133676571Y-81793571D01*
X133676571Y-81936428D01*
X132390857Y-83222142D02*
X132533714Y-83293571D01*
X132819428Y-83293571D01*
X132962285Y-83222142D01*
X133033714Y-83079285D01*
X133033714Y-82507857D01*
X132962285Y-82365000D01*
X132819428Y-82293571D01*
X132533714Y-82293571D01*
X132390857Y-82365000D01*
X132319428Y-82507857D01*
X132319428Y-82650714D01*
X133033714Y-82793571D01*
X131676571Y-83293571D02*
X131676571Y-82293571D01*
X131676571Y-82579285D02*
X131605142Y-82436428D01*
X131533714Y-82365000D01*
X131390857Y-82293571D01*
X131248000Y-82293571D01*
X130748000Y-83293571D02*
X130748000Y-82293571D01*
X130748000Y-82579285D02*
X130676571Y-82436428D01*
X130605142Y-82365000D01*
X130462285Y-82293571D01*
X130319428Y-82293571D01*
X129248000Y-83222142D02*
X129390857Y-83293571D01*
X129676571Y-83293571D01*
X129819428Y-83222142D01*
X129890857Y-83079285D01*
X129890857Y-82507857D01*
X129819428Y-82365000D01*
X129676571Y-82293571D01*
X129390857Y-82293571D01*
X129248000Y-82365000D01*
X129176571Y-82507857D01*
X129176571Y-82650714D01*
X129890857Y-82793571D01*
X126819428Y-83222142D02*
X126962285Y-83293571D01*
X127248000Y-83293571D01*
X127390857Y-83222142D01*
X127462285Y-83079285D01*
X127462285Y-82507857D01*
X127390857Y-82365000D01*
X127248000Y-82293571D01*
X126962285Y-82293571D01*
X126819428Y-82365000D01*
X126748000Y-82507857D01*
X126748000Y-82650714D01*
X127462285Y-82793571D01*
X126319428Y-82293571D02*
X125748000Y-82293571D01*
X126105142Y-81793571D02*
X126105142Y-83079285D01*
X126033714Y-83222142D01*
X125890857Y-83293571D01*
X125748000Y-83293571D01*
X123605142Y-82507857D02*
X124105142Y-82507857D01*
X124105142Y-83293571D02*
X124105142Y-81793571D01*
X123390857Y-81793571D01*
X122819428Y-83293571D02*
X122819428Y-82293571D01*
X122819428Y-82579285D02*
X122748000Y-82436428D01*
X122676571Y-82365000D01*
X122533714Y-82293571D01*
X122390857Y-82293571D01*
X121248000Y-83293571D02*
X121248000Y-82507857D01*
X121319428Y-82365000D01*
X121462285Y-82293571D01*
X121748000Y-82293571D01*
X121890857Y-82365000D01*
X121248000Y-83222142D02*
X121390857Y-83293571D01*
X121748000Y-83293571D01*
X121890857Y-83222142D01*
X121962285Y-83079285D01*
X121962285Y-82936428D01*
X121890857Y-82793571D01*
X121748000Y-82722142D01*
X121390857Y-82722142D01*
X121248000Y-82650714D01*
X120533714Y-82293571D02*
X120533714Y-83293571D01*
X120533714Y-82436428D02*
X120462285Y-82365000D01*
X120319428Y-82293571D01*
X120105142Y-82293571D01*
X119962285Y-82365000D01*
X119890857Y-82507857D01*
X119890857Y-83293571D01*
X118533714Y-83222142D02*
X118676571Y-83293571D01*
X118962285Y-83293571D01*
X119105142Y-83222142D01*
X119176571Y-83150714D01*
X119248000Y-83007857D01*
X119248000Y-82579285D01*
X119176571Y-82436428D01*
X119105142Y-82365000D01*
X118962285Y-82293571D01*
X118676571Y-82293571D01*
X118533714Y-82365000D01*
X118819428Y-83365000D02*
X118676571Y-83436428D01*
X118605142Y-83579285D01*
X118676571Y-83722142D01*
X118819428Y-83793571D01*
X119033714Y-83793571D01*
X117676571Y-83293571D02*
X117819428Y-83222142D01*
X117890857Y-83150714D01*
X117962285Y-83007857D01*
X117962285Y-82579285D01*
X117890857Y-82436428D01*
X117819428Y-82365000D01*
X117676571Y-82293571D01*
X117462285Y-82293571D01*
X117319428Y-82365000D01*
X117248000Y-82436428D01*
X117176571Y-82579285D01*
X117176571Y-83007857D01*
X117248000Y-83150714D01*
X117319428Y-83222142D01*
X117462285Y-83293571D01*
X117676571Y-83293571D01*
X116533714Y-83293571D02*
X116533714Y-82293571D01*
X116533714Y-81793571D02*
X116605142Y-81865000D01*
X116533714Y-81936428D01*
X116462285Y-81865000D01*
X116533714Y-81793571D01*
X116533714Y-81936428D01*
X115890857Y-83222142D02*
X115748000Y-83293571D01*
X115462285Y-83293571D01*
X115319428Y-83222142D01*
X115248000Y-83079285D01*
X115248000Y-83007857D01*
X115319428Y-82865000D01*
X115462285Y-82793571D01*
X115676571Y-82793571D01*
X115819428Y-82722142D01*
X115890857Y-82579285D01*
X115890857Y-82507857D01*
X115819428Y-82365000D01*
X115676571Y-82293571D01*
X115462285Y-82293571D01*
X115319428Y-82365000D01*
D14*
X171748000Y-103115000D03*
X169248000Y-103115000D03*
D15*
X139238000Y-113175000D03*
X146758000Y-113175000D03*
X139238000Y-110635000D03*
X146758000Y-110635000D03*
X139238000Y-108095000D03*
X146758000Y-108095000D03*
D16*
X139238000Y-105555000D03*
D15*
X146758000Y-105555000D03*
X170998000Y-118175000D03*
X170998000Y-115635000D03*
X170998000Y-113095000D03*
X170998000Y-110555000D03*
X150998000Y-90985000D03*
X150998000Y-88445000D03*
X150998000Y-85905000D03*
X150998000Y-83365000D03*
X150998000Y-80825000D03*
X172808000Y-84365000D03*
X170268000Y-84365000D03*
X167728000Y-84365000D03*
X165188000Y-84365000D03*
X133728000Y-91365000D03*
X136268000Y-91365000D03*
D17*
X152298000Y-110365000D03*
D14*
X164998000Y-110365000D03*
D17*
X155298000Y-91365000D03*
D14*
X167998000Y-91365000D03*
D17*
X133698000Y-101365000D03*
D14*
X120998000Y-101365000D03*
D17*
X132698000Y-106365000D03*
D14*
X119998000Y-106365000D03*
D17*
X138698000Y-97365000D03*
D14*
X125998000Y-97365000D03*
X163998000Y-103115000D03*
X161498000Y-103115000D03*
X155998000Y-98365000D03*
X150998000Y-98365000D03*
X119998000Y-111365000D03*
X122498000Y-111365000D03*
D18*
X138938000Y-123825000D03*
X141478000Y-123825000D03*
X144018000Y-123825000D03*
X146558000Y-123825000D03*
X149098000Y-123825000D03*
X151638000Y-123825000D03*
X154178000Y-123825000D03*
X156718000Y-123825000D03*
X161798000Y-123825000D03*
X164338000Y-123825000D03*
X166878000Y-123825000D03*
X169418000Y-123825000D03*
X171958000Y-123825000D03*
X174498000Y-123825000D03*
X129794000Y-75565000D03*
X132334000Y-75565000D03*
X134874000Y-75565000D03*
X137414000Y-75565000D03*
X139954000Y-75565000D03*
X142494000Y-75565000D03*
X145034000Y-75565000D03*
X147574000Y-75565000D03*
X150114000Y-75565000D03*
X152654000Y-75565000D03*
X156718000Y-75565000D03*
X159258000Y-75565000D03*
X161798000Y-75565000D03*
X164338000Y-75565000D03*
X166878000Y-75565000D03*
X169418000Y-75565000D03*
X171958000Y-75565000D03*
X174498000Y-75565000D03*
D19*
X124968000Y-123825000D03*
X177038000Y-118745000D03*
X126238000Y-75565000D03*
X177038000Y-90805000D03*
D20*
X139188000Y-88445000D02*
X136268000Y-91365000D01*
X147757999Y-107095001D02*
X146758000Y-108095000D01*
X149098000Y-123825000D02*
X149098000Y-123977400D01*
X163773787Y-84365000D02*
X165188000Y-84365000D01*
X160447998Y-84365000D02*
X163773787Y-84365000D01*
X155722999Y-89089999D02*
X160447998Y-84365000D01*
X156722999Y-89089999D02*
X156998000Y-89365000D01*
X156998000Y-89365000D02*
X156998000Y-94365000D01*
X155722999Y-89089999D02*
X156722999Y-89089999D01*
X171748000Y-109805000D02*
X170998000Y-110555000D01*
X171748000Y-103115000D02*
X171748000Y-109805000D01*
X149098000Y-123672600D02*
X149098000Y-123825000D01*
X145307999Y-119882599D02*
X149098000Y-123672600D01*
X145307999Y-109545001D02*
X145307999Y-119882599D01*
X146758000Y-108095000D02*
X145307999Y-109545001D01*
X171748000Y-101983630D02*
X171748000Y-103115000D01*
X171748000Y-93115000D02*
X171748000Y-101983630D01*
X167897999Y-89264999D02*
X171748000Y-93115000D01*
X167397999Y-89264999D02*
X167897999Y-89264999D01*
X165188000Y-84365000D02*
X165188000Y-87055000D01*
X165188000Y-87055000D02*
X167397999Y-89264999D01*
X150748000Y-104105000D02*
X146758000Y-108095000D01*
X150748000Y-100615000D02*
X150748000Y-104105000D01*
X156998000Y-94365000D02*
X150748000Y-100615000D01*
X148328000Y-88445000D02*
X148328000Y-93285000D01*
X148328000Y-88445000D02*
X139188000Y-88445000D01*
X150998000Y-88445000D02*
X148328000Y-88445000D01*
X148328000Y-93285000D02*
X149158000Y-94115000D01*
X149158000Y-94115000D02*
X151998000Y-94115000D01*
X151998000Y-94115000D02*
X153498000Y-92615000D01*
X153498000Y-92615000D02*
X153498000Y-90615000D01*
X155023001Y-89089999D02*
X155722999Y-89089999D01*
X153498000Y-90615000D02*
X155023001Y-89089999D01*
X151638000Y-123672600D02*
X151638000Y-123825000D01*
X119998000Y-111365000D02*
X119998000Y-106365000D01*
X120998000Y-105365000D02*
X119998000Y-106365000D01*
X120998000Y-101365000D02*
X120998000Y-105365000D01*
X121808000Y-113175000D02*
X139238000Y-113175000D01*
X119998000Y-111365000D02*
X121808000Y-113175000D01*
X169547999Y-104546369D02*
X169547999Y-111644999D01*
X169248000Y-104246370D02*
X169547999Y-104546369D01*
X169248000Y-103115000D02*
X169248000Y-104246370D01*
X154178000Y-123825000D02*
X151638000Y-123825000D01*
X169547999Y-111644999D02*
X169998001Y-112095001D01*
X169547999Y-109314997D02*
X169547999Y-111644999D01*
X169998001Y-112095001D02*
X170998000Y-113095000D01*
X160247999Y-102514999D02*
X160897999Y-101864999D01*
X160247999Y-117602601D02*
X160247999Y-102514999D01*
X154178000Y-123672600D02*
X160247999Y-117602601D01*
X154178000Y-123825000D02*
X154178000Y-123672600D01*
X162747999Y-101864999D02*
X163998000Y-103115000D01*
X161747999Y-101864999D02*
X162747999Y-101864999D01*
X161747999Y-101864999D02*
X162098001Y-101864999D01*
X160897999Y-101864999D02*
X161747999Y-101864999D01*
X163998000Y-103115000D02*
X169248000Y-103115000D01*
X151638000Y-123977400D02*
X151638000Y-123825000D01*
X150274400Y-125341000D02*
X151638000Y-123977400D01*
X138443875Y-125341000D02*
X150274400Y-125341000D01*
X137624390Y-124521515D02*
X138443875Y-125341000D01*
X137624390Y-114788610D02*
X137624390Y-124521515D01*
X139238000Y-113175000D02*
X137624390Y-114788610D01*
X123373000Y-98139998D02*
X123373000Y-98990000D01*
X137414000Y-84098998D02*
X123373000Y-98139998D01*
X137414000Y-75565000D02*
X137414000Y-84098998D01*
X120998000Y-101365000D02*
X123373000Y-98990000D01*
X166728001Y-83365001D02*
X167728000Y-84365000D01*
X166277999Y-82914999D02*
X166728001Y-83365001D01*
X159068001Y-82914999D02*
X166277999Y-82914999D01*
X150998000Y-90985000D02*
X159068001Y-82914999D01*
X171997999Y-112095001D02*
X170998000Y-113095000D01*
X172998001Y-111094999D02*
X171997999Y-112095001D01*
X172998001Y-89635001D02*
X172998001Y-111094999D01*
X167728000Y-84365000D02*
X172998001Y-89635001D01*
X127698000Y-111365000D02*
X132698000Y-106365000D01*
X122998000Y-111365000D02*
X127698000Y-111365000D01*
X132698000Y-105233630D02*
X132698000Y-106365000D01*
X132447999Y-104983629D02*
X132698000Y-105233630D01*
X132447999Y-100764999D02*
X132447999Y-104983629D01*
X135047999Y-98164999D02*
X132447999Y-100764999D01*
X137898001Y-98164999D02*
X135047999Y-98164999D01*
X138698000Y-97365000D02*
X137898001Y-98164999D01*
X128428000Y-110635000D02*
X139238000Y-110635000D01*
X127698000Y-111365000D02*
X128428000Y-110635000D01*
X146758000Y-110635000D02*
X147028000Y-110365000D01*
X152028000Y-110635000D02*
X152298000Y-110365000D01*
X146758000Y-110635000D02*
X152028000Y-110635000D01*
X152298000Y-102065000D02*
X155998000Y-98365000D01*
X152298000Y-110365000D02*
X152298000Y-102065000D01*
X163998000Y-87365000D02*
X167998000Y-91365000D01*
X163998000Y-86615000D02*
X163998000Y-87365000D01*
X162998000Y-85615000D02*
X163998000Y-86615000D01*
X155998000Y-98365000D02*
X156797999Y-97565001D01*
X156797999Y-97565001D02*
X158347989Y-97565001D01*
X158347989Y-97565001D02*
X159248000Y-96664990D01*
X159248000Y-96664990D02*
X159248000Y-87615000D01*
X159248000Y-87615000D02*
X161248000Y-85615000D01*
X161248000Y-85615000D02*
X162998000Y-85615000D01*
X150198001Y-99164999D02*
X150998000Y-98365000D01*
X142267999Y-107095001D02*
X150198001Y-99164999D01*
X140237999Y-107095001D02*
X142267999Y-107095001D01*
X139238000Y-108095000D02*
X140237999Y-107095001D01*
X155298000Y-94065000D02*
X151998000Y-97365000D01*
X155298000Y-91365000D02*
X155298000Y-94065000D01*
X151998000Y-97365000D02*
X150998000Y-98365000D01*
X137687963Y-108095000D02*
X139238000Y-108095000D01*
X133698000Y-101365000D02*
X133698000Y-104105037D01*
X133698000Y-104105037D02*
X137687963Y-108095000D01*
X161798000Y-123672600D02*
X161798000Y-123825000D01*
X161798000Y-113565000D02*
X164998000Y-110365000D01*
X161798000Y-123825000D02*
X161798000Y-113565000D01*
X161498000Y-106865000D02*
X164998000Y-110365000D01*
X161498000Y-103115000D02*
X161498000Y-106865000D01*
X174498000Y-122309000D02*
X174498000Y-123825000D01*
X174498000Y-118615000D02*
X174498000Y-122309000D01*
X172517999Y-116634999D02*
X174498000Y-118615000D01*
X170998000Y-115635000D02*
X171997999Y-116634999D01*
X171997999Y-116634999D02*
X172517999Y-116634999D01*
X170998000Y-122865000D02*
X171958000Y-123825000D01*
X170998000Y-118175000D02*
X170998000Y-122865000D01*
X145034000Y-79941000D02*
X150998000Y-85905000D01*
X145034000Y-75565000D02*
X145034000Y-79941000D01*
X147574000Y-79941000D02*
X147574000Y-75565000D01*
X150998000Y-83365000D02*
X147574000Y-79941000D01*
X169418000Y-75717400D02*
X169418000Y-75565000D01*
X164310400Y-80825000D02*
X169418000Y-75717400D01*
X150998000Y-80825000D02*
X164310400Y-80825000D01*
X171958000Y-75412600D02*
X171958000Y-75565000D01*
X171958000Y-74049000D02*
X171958000Y-75565000D01*
X172456990Y-73550010D02*
X171958000Y-74049000D01*
X172808000Y-84365000D02*
X173807999Y-83365001D01*
X173807999Y-83365001D02*
X173807999Y-83305001D01*
X173807999Y-83305001D02*
X176512990Y-80600010D01*
X176512990Y-80600010D02*
X176512990Y-74766466D01*
X176512990Y-74766466D02*
X175296534Y-73550010D01*
X175296534Y-73550010D02*
X172456990Y-73550010D01*
X174498000Y-80135000D02*
X174498000Y-75565000D01*
X170268000Y-84365000D02*
X174498000Y-80135000D01*
X131998000Y-91365000D02*
X125998000Y-97365000D01*
X133728000Y-91365000D02*
X131998000Y-91365000D01*
X130268000Y-76039000D02*
X129794000Y-75565000D01*
X132334000Y-75717400D02*
X132334000Y-75565000D01*
X132808000Y-76039000D02*
X132334000Y-75565000D01*
D21*
G36*
X124166406Y-73864887D02*
G01*
X123874536Y-74301702D01*
X123673492Y-74787065D01*
X123571000Y-75302323D01*
X123571000Y-75827677D01*
X123673492Y-76342935D01*
X123874536Y-76828298D01*
X124166406Y-77265113D01*
X124537887Y-77636594D01*
X124974702Y-77928464D01*
X125460065Y-78129508D01*
X125975323Y-78232000D01*
X126500677Y-78232000D01*
X127015935Y-78129508D01*
X127501298Y-77928464D01*
X127938113Y-77636594D01*
X128309594Y-77265113D01*
X128601464Y-76828298D01*
X128657001Y-76694219D01*
X128729203Y-76782197D01*
X128957395Y-76969469D01*
X129217737Y-77108625D01*
X129500224Y-77194316D01*
X129794000Y-77223251D01*
X130087777Y-77194316D01*
X130370264Y-77108625D01*
X130630606Y-76969469D01*
X130858797Y-76782197D01*
X131046069Y-76554006D01*
X131064000Y-76520459D01*
X131081931Y-76554006D01*
X131269203Y-76782197D01*
X131497395Y-76969469D01*
X131757737Y-77108625D01*
X132040224Y-77194316D01*
X132334000Y-77223251D01*
X132627777Y-77194316D01*
X132910264Y-77108625D01*
X133170606Y-76969469D01*
X133398797Y-76782197D01*
X133586069Y-76554006D01*
X133604000Y-76520459D01*
X133621931Y-76554006D01*
X133809203Y-76782197D01*
X134037395Y-76969469D01*
X134297737Y-77108625D01*
X134580224Y-77194316D01*
X134874000Y-77223251D01*
X135167777Y-77194316D01*
X135450264Y-77108625D01*
X135710606Y-76969469D01*
X135938797Y-76782197D01*
X136126069Y-76554006D01*
X136147424Y-76514053D01*
X136295514Y-76716729D01*
X136511965Y-76915733D01*
X136763081Y-77068686D01*
X137039211Y-77169709D01*
X137054974Y-77172358D01*
X137287000Y-77051217D01*
X137287000Y-75692000D01*
X137267000Y-75692000D01*
X137267000Y-75438000D01*
X137287000Y-75438000D01*
X137287000Y-74078783D01*
X137054974Y-73957642D01*
X137039211Y-73960291D01*
X136763081Y-74061314D01*
X136511965Y-74214267D01*
X136295514Y-74413271D01*
X136147424Y-74615947D01*
X136126069Y-74575994D01*
X135938797Y-74347803D01*
X135710605Y-74160531D01*
X135450263Y-74021375D01*
X135167776Y-73935684D01*
X134874000Y-73906749D01*
X134580223Y-73935684D01*
X134297736Y-74021375D01*
X134037394Y-74160531D01*
X133809203Y-74347803D01*
X133621931Y-74575995D01*
X133604000Y-74609541D01*
X133586069Y-74575994D01*
X133398797Y-74347803D01*
X133170605Y-74160531D01*
X132910263Y-74021375D01*
X132627776Y-73935684D01*
X132334000Y-73906749D01*
X132040223Y-73935684D01*
X131757736Y-74021375D01*
X131497394Y-74160531D01*
X131269203Y-74347803D01*
X131081931Y-74575995D01*
X131064000Y-74609541D01*
X131046069Y-74575994D01*
X130858797Y-74347803D01*
X130630605Y-74160531D01*
X130370263Y-74021375D01*
X130087776Y-73935684D01*
X129794000Y-73906749D01*
X129500223Y-73935684D01*
X129217736Y-74021375D01*
X128957394Y-74160531D01*
X128729203Y-74347803D01*
X128657001Y-74435781D01*
X128601464Y-74301702D01*
X128309594Y-73864887D01*
X128179707Y-73735000D01*
X171128429Y-73735000D01*
X171085805Y-73875511D01*
X171073000Y-74005524D01*
X171073000Y-74005531D01*
X171068719Y-74049000D01*
X171073000Y-74092470D01*
X171073000Y-74200247D01*
X170893203Y-74347803D01*
X170705931Y-74575995D01*
X170688000Y-74609541D01*
X170670069Y-74575994D01*
X170482797Y-74347803D01*
X170254605Y-74160531D01*
X169994263Y-74021375D01*
X169711776Y-73935684D01*
X169418000Y-73906749D01*
X169124223Y-73935684D01*
X168841736Y-74021375D01*
X168581394Y-74160531D01*
X168353203Y-74347803D01*
X168165931Y-74575995D01*
X168148000Y-74609541D01*
X168130069Y-74575994D01*
X167942797Y-74347803D01*
X167714605Y-74160531D01*
X167454263Y-74021375D01*
X167171776Y-73935684D01*
X166878000Y-73906749D01*
X166584223Y-73935684D01*
X166301736Y-74021375D01*
X166041394Y-74160531D01*
X165813203Y-74347803D01*
X165625931Y-74575995D01*
X165608000Y-74609541D01*
X165590069Y-74575994D01*
X165402797Y-74347803D01*
X165174605Y-74160531D01*
X164914263Y-74021375D01*
X164631776Y-73935684D01*
X164338000Y-73906749D01*
X164044223Y-73935684D01*
X163761736Y-74021375D01*
X163501394Y-74160531D01*
X163273203Y-74347803D01*
X163085931Y-74575995D01*
X163068000Y-74609541D01*
X163050069Y-74575994D01*
X162862797Y-74347803D01*
X162634605Y-74160531D01*
X162374263Y-74021375D01*
X162091776Y-73935684D01*
X161798000Y-73906749D01*
X161504223Y-73935684D01*
X161221736Y-74021375D01*
X160961394Y-74160531D01*
X160733203Y-74347803D01*
X160545931Y-74575995D01*
X160528000Y-74609541D01*
X160510069Y-74575994D01*
X160322797Y-74347803D01*
X160094605Y-74160531D01*
X159834263Y-74021375D01*
X159551776Y-73935684D01*
X159258000Y-73906749D01*
X158964223Y-73935684D01*
X158681736Y-74021375D01*
X158421394Y-74160531D01*
X158193203Y-74347803D01*
X158005931Y-74575995D01*
X157988000Y-74609541D01*
X157970069Y-74575994D01*
X157782797Y-74347803D01*
X157554605Y-74160531D01*
X157294263Y-74021375D01*
X157011776Y-73935684D01*
X156718000Y-73906749D01*
X156424223Y-73935684D01*
X156141736Y-74021375D01*
X155881394Y-74160531D01*
X155653203Y-74347803D01*
X155465931Y-74575995D01*
X155326775Y-74836337D01*
X155241084Y-75118824D01*
X155219400Y-75338982D01*
X155219400Y-75791019D01*
X155241084Y-76011177D01*
X155326775Y-76293664D01*
X155465931Y-76554006D01*
X155653203Y-76782197D01*
X155881395Y-76969469D01*
X156141737Y-77108625D01*
X156424224Y-77194316D01*
X156718000Y-77223251D01*
X157011777Y-77194316D01*
X157294264Y-77108625D01*
X157554606Y-76969469D01*
X157782797Y-76782197D01*
X157970069Y-76554006D01*
X157988000Y-76520459D01*
X158005931Y-76554006D01*
X158193203Y-76782197D01*
X158421395Y-76969469D01*
X158681737Y-77108625D01*
X158964224Y-77194316D01*
X159258000Y-77223251D01*
X159551777Y-77194316D01*
X159834264Y-77108625D01*
X160094606Y-76969469D01*
X160322797Y-76782197D01*
X160510069Y-76554006D01*
X160528000Y-76520459D01*
X160545931Y-76554006D01*
X160733203Y-76782197D01*
X160961395Y-76969469D01*
X161221737Y-77108625D01*
X161504224Y-77194316D01*
X161798000Y-77223251D01*
X162091777Y-77194316D01*
X162374264Y-77108625D01*
X162634606Y-76969469D01*
X162862797Y-76782197D01*
X163050069Y-76554006D01*
X163068000Y-76520459D01*
X163085931Y-76554006D01*
X163273203Y-76782197D01*
X163501395Y-76969469D01*
X163761737Y-77108625D01*
X164044224Y-77194316D01*
X164338000Y-77223251D01*
X164631777Y-77194316D01*
X164914264Y-77108625D01*
X165174606Y-76969469D01*
X165402797Y-76782197D01*
X165590069Y-76554006D01*
X165608000Y-76520459D01*
X165625931Y-76554006D01*
X165813203Y-76782197D01*
X166041395Y-76969469D01*
X166301737Y-77108625D01*
X166584224Y-77194316D01*
X166680066Y-77203756D01*
X163943822Y-79940000D01*
X152373059Y-79940000D01*
X152267987Y-79782748D01*
X152040252Y-79555013D01*
X151772463Y-79376082D01*
X151474912Y-79252832D01*
X151159033Y-79190000D01*
X150836967Y-79190000D01*
X150521088Y-79252832D01*
X150223537Y-79376082D01*
X149955748Y-79555013D01*
X149728013Y-79782748D01*
X149549082Y-80050537D01*
X149425832Y-80348088D01*
X149393784Y-80509206D01*
X148459000Y-79574422D01*
X148459000Y-76929753D01*
X148638797Y-76782197D01*
X148826069Y-76554006D01*
X148844000Y-76520459D01*
X148861931Y-76554006D01*
X149049203Y-76782197D01*
X149277395Y-76969469D01*
X149537737Y-77108625D01*
X149820224Y-77194316D01*
X150114000Y-77223251D01*
X150407777Y-77194316D01*
X150690264Y-77108625D01*
X150950606Y-76969469D01*
X151178797Y-76782197D01*
X151366069Y-76554006D01*
X151384000Y-76520459D01*
X151401931Y-76554006D01*
X151589203Y-76782197D01*
X151817395Y-76969469D01*
X152077737Y-77108625D01*
X152360224Y-77194316D01*
X152654000Y-77223251D01*
X152947777Y-77194316D01*
X153230264Y-77108625D01*
X153490606Y-76969469D01*
X153718797Y-76782197D01*
X153906069Y-76554006D01*
X154045225Y-76293663D01*
X154130916Y-76011176D01*
X154152600Y-75791018D01*
X154152600Y-75338981D01*
X154130916Y-75118823D01*
X154045225Y-74836336D01*
X153906069Y-74575994D01*
X153718797Y-74347803D01*
X153490605Y-74160531D01*
X153230263Y-74021375D01*
X152947776Y-73935684D01*
X152654000Y-73906749D01*
X152360223Y-73935684D01*
X152077736Y-74021375D01*
X151817394Y-74160531D01*
X151589203Y-74347803D01*
X151401931Y-74575995D01*
X151384000Y-74609541D01*
X151366069Y-74575994D01*
X151178797Y-74347803D01*
X150950605Y-74160531D01*
X150690263Y-74021375D01*
X150407776Y-73935684D01*
X150114000Y-73906749D01*
X149820223Y-73935684D01*
X149537736Y-74021375D01*
X149277394Y-74160531D01*
X149049203Y-74347803D01*
X148861931Y-74575995D01*
X148844000Y-74609541D01*
X148826069Y-74575994D01*
X148638797Y-74347803D01*
X148410605Y-74160531D01*
X148150263Y-74021375D01*
X147867776Y-73935684D01*
X147574000Y-73906749D01*
X147280223Y-73935684D01*
X146997736Y-74021375D01*
X146737394Y-74160531D01*
X146509203Y-74347803D01*
X146321931Y-74575995D01*
X146304000Y-74609541D01*
X146286069Y-74575994D01*
X146098797Y-74347803D01*
X145870605Y-74160531D01*
X145610263Y-74021375D01*
X145327776Y-73935684D01*
X145034000Y-73906749D01*
X144740223Y-73935684D01*
X144457736Y-74021375D01*
X144197394Y-74160531D01*
X143969203Y-74347803D01*
X143781931Y-74575995D01*
X143764000Y-74609541D01*
X143746069Y-74575994D01*
X143558797Y-74347803D01*
X143330605Y-74160531D01*
X143070263Y-74021375D01*
X142787776Y-73935684D01*
X142494000Y-73906749D01*
X142200223Y-73935684D01*
X141917736Y-74021375D01*
X141657394Y-74160531D01*
X141429203Y-74347803D01*
X141241931Y-74575995D01*
X141224000Y-74609541D01*
X141206069Y-74575994D01*
X141018797Y-74347803D01*
X140790605Y-74160531D01*
X140530263Y-74021375D01*
X140247776Y-73935684D01*
X139954000Y-73906749D01*
X139660223Y-73935684D01*
X139377736Y-74021375D01*
X139117394Y-74160531D01*
X138889203Y-74347803D01*
X138701931Y-74575995D01*
X138680576Y-74615947D01*
X138532486Y-74413271D01*
X138316035Y-74214267D01*
X138064919Y-74061314D01*
X137788789Y-73960291D01*
X137773026Y-73957642D01*
X137541000Y-74078783D01*
X137541000Y-75438000D01*
X137561000Y-75438000D01*
X137561000Y-75692000D01*
X137541000Y-75692000D01*
X137541000Y-77051217D01*
X137773026Y-77172358D01*
X137788789Y-77169709D01*
X138064919Y-77068686D01*
X138316035Y-76915733D01*
X138532486Y-76716729D01*
X138680576Y-76514053D01*
X138701931Y-76554006D01*
X138889203Y-76782197D01*
X139117395Y-76969469D01*
X139377737Y-77108625D01*
X139660224Y-77194316D01*
X139954000Y-77223251D01*
X140247777Y-77194316D01*
X140530264Y-77108625D01*
X140790606Y-76969469D01*
X141018797Y-76782197D01*
X141206069Y-76554006D01*
X141224000Y-76520459D01*
X141241931Y-76554006D01*
X141429203Y-76782197D01*
X141657395Y-76969469D01*
X141917737Y-77108625D01*
X142200224Y-77194316D01*
X142494000Y-77223251D01*
X142787777Y-77194316D01*
X143070264Y-77108625D01*
X143330606Y-76969469D01*
X143558797Y-76782197D01*
X143746069Y-76554006D01*
X143764000Y-76520459D01*
X143781931Y-76554006D01*
X143969203Y-76782197D01*
X144149000Y-76929753D01*
X144149001Y-79897521D01*
X144144719Y-79941000D01*
X144161805Y-80114490D01*
X144212412Y-80281313D01*
X144294590Y-80435059D01*
X144377468Y-80536046D01*
X144377471Y-80536049D01*
X144405184Y-80569817D01*
X144438952Y-80597530D01*
X149399896Y-85558475D01*
X149363000Y-85743967D01*
X149363000Y-86066033D01*
X149425832Y-86381912D01*
X149549082Y-86679463D01*
X149728013Y-86947252D01*
X149955748Y-87174987D01*
X149955767Y-87175000D01*
X149955748Y-87175013D01*
X149728013Y-87402748D01*
X149622941Y-87560000D01*
X148371476Y-87560000D01*
X148328000Y-87555718D01*
X148284523Y-87560000D01*
X139231469Y-87560000D01*
X139188000Y-87555719D01*
X139144531Y-87560000D01*
X139144523Y-87560000D01*
X139027527Y-87571523D01*
X139014510Y-87572805D01*
X138847686Y-87623411D01*
X138693941Y-87705589D01*
X138592953Y-87788468D01*
X138592951Y-87788470D01*
X138559183Y-87816183D01*
X138531470Y-87849951D01*
X136614525Y-89766897D01*
X136429033Y-89730000D01*
X136106967Y-89730000D01*
X135791088Y-89792832D01*
X135493537Y-89916082D01*
X135225748Y-90095013D01*
X134998013Y-90322748D01*
X134998000Y-90322767D01*
X134997987Y-90322748D01*
X134770252Y-90095013D01*
X134502463Y-89916082D01*
X134204912Y-89792832D01*
X133889033Y-89730000D01*
X133566967Y-89730000D01*
X133251088Y-89792832D01*
X132953537Y-89916082D01*
X132685748Y-90095013D01*
X132458013Y-90322748D01*
X132352941Y-90480000D01*
X132041465Y-90480000D01*
X131997999Y-90475719D01*
X131954533Y-90480000D01*
X131954523Y-90480000D01*
X131824510Y-90492805D01*
X131657687Y-90543411D01*
X131503941Y-90625589D01*
X131503939Y-90625590D01*
X131503940Y-90625590D01*
X131402953Y-90708468D01*
X131402951Y-90708470D01*
X131369183Y-90736183D01*
X131341470Y-90769951D01*
X126174439Y-95936983D01*
X126139335Y-95930000D01*
X125856665Y-95930000D01*
X125579426Y-95985147D01*
X125318273Y-96093320D01*
X125083241Y-96250363D01*
X124883363Y-96450241D01*
X124726320Y-96685273D01*
X124618147Y-96946426D01*
X124563000Y-97223665D01*
X124563000Y-97506335D01*
X124618147Y-97783574D01*
X124726320Y-98044727D01*
X124883363Y-98279759D01*
X125083241Y-98479637D01*
X125318273Y-98636680D01*
X125579426Y-98744853D01*
X125856665Y-98800000D01*
X126139335Y-98800000D01*
X126416574Y-98744853D01*
X126677727Y-98636680D01*
X126912759Y-98479637D01*
X127112637Y-98279759D01*
X127269680Y-98044727D01*
X127377853Y-97783574D01*
X127433000Y-97506335D01*
X127433000Y-97223665D01*
X127426017Y-97188561D01*
X132357602Y-92256977D01*
X132458013Y-92407252D01*
X132685748Y-92634987D01*
X132953537Y-92813918D01*
X133251088Y-92937168D01*
X133566967Y-93000000D01*
X133889033Y-93000000D01*
X134204912Y-92937168D01*
X134502463Y-92813918D01*
X134770252Y-92634987D01*
X134997987Y-92407252D01*
X134998000Y-92407233D01*
X134998013Y-92407252D01*
X135225748Y-92634987D01*
X135493537Y-92813918D01*
X135791088Y-92937168D01*
X136106967Y-93000000D01*
X136429033Y-93000000D01*
X136744912Y-92937168D01*
X137042463Y-92813918D01*
X137310252Y-92634987D01*
X137537987Y-92407252D01*
X137716918Y-92139463D01*
X137840168Y-91841912D01*
X137903000Y-91526033D01*
X137903000Y-91203967D01*
X137866103Y-91018475D01*
X139554579Y-89330000D01*
X147443000Y-89330000D01*
X147443001Y-93241521D01*
X147438719Y-93285000D01*
X147455805Y-93458490D01*
X147506412Y-93625313D01*
X147588590Y-93779059D01*
X147671468Y-93880046D01*
X147671471Y-93880049D01*
X147699184Y-93913817D01*
X147732951Y-93941529D01*
X148501470Y-94710049D01*
X148529183Y-94743817D01*
X148562951Y-94771530D01*
X148562953Y-94771532D01*
X148603016Y-94804411D01*
X148663941Y-94854411D01*
X148817687Y-94936589D01*
X148984510Y-94987195D01*
X149114523Y-95000000D01*
X149114533Y-95000000D01*
X149157999Y-95004281D01*
X149201465Y-95000000D01*
X151954531Y-95000000D01*
X151998000Y-95004281D01*
X152041469Y-95000000D01*
X152041477Y-95000000D01*
X152171490Y-94987195D01*
X152338313Y-94936589D01*
X152492059Y-94854411D01*
X152626817Y-94743817D01*
X152654534Y-94710044D01*
X154093050Y-93271529D01*
X154126817Y-93243817D01*
X154237411Y-93109059D01*
X154319589Y-92955313D01*
X154370195Y-92788490D01*
X154383000Y-92658477D01*
X154383000Y-92658467D01*
X154387281Y-92615001D01*
X154383000Y-92571535D01*
X154383000Y-92470458D01*
X154413000Y-92495078D01*
X154413001Y-93698420D01*
X151402958Y-96708464D01*
X151402953Y-96708468D01*
X151174439Y-96936983D01*
X151139335Y-96930000D01*
X150856665Y-96930000D01*
X150579426Y-96985147D01*
X150318273Y-97093320D01*
X150083241Y-97250363D01*
X149883363Y-97450241D01*
X149726320Y-97685273D01*
X149618147Y-97946426D01*
X149563000Y-98223665D01*
X149563000Y-98506335D01*
X149569983Y-98541438D01*
X141901421Y-106210001D01*
X140876072Y-106210001D01*
X140876072Y-104555000D01*
X140863812Y-104430518D01*
X140827502Y-104310820D01*
X140768537Y-104200506D01*
X140689185Y-104103815D01*
X140592494Y-104024463D01*
X140482180Y-103965498D01*
X140362482Y-103929188D01*
X140238000Y-103916928D01*
X138238000Y-103916928D01*
X138113518Y-103929188D01*
X137993820Y-103965498D01*
X137883506Y-104024463D01*
X137786815Y-104103815D01*
X137707463Y-104200506D01*
X137648498Y-104310820D01*
X137612188Y-104430518D01*
X137599928Y-104555000D01*
X137599928Y-106555000D01*
X137612188Y-106679482D01*
X137648498Y-106799180D01*
X137653983Y-106809441D01*
X134583000Y-103738459D01*
X134583000Y-102495078D01*
X134717608Y-102384608D01*
X134896932Y-102166101D01*
X135030182Y-101916808D01*
X135112236Y-101646309D01*
X135139943Y-101365000D01*
X135112236Y-101083691D01*
X135030182Y-100813192D01*
X134896932Y-100563899D01*
X134717608Y-100345392D01*
X134499101Y-100166068D01*
X134368380Y-100096196D01*
X135414578Y-99049999D01*
X137854532Y-99049999D01*
X137898001Y-99054280D01*
X137941470Y-99049999D01*
X137941478Y-99049999D01*
X138071491Y-99037194D01*
X138238314Y-98986588D01*
X138392060Y-98904410D01*
X138526818Y-98793816D01*
X138529653Y-98790362D01*
X138627508Y-98800000D01*
X138768492Y-98800000D01*
X138979309Y-98779236D01*
X139249808Y-98697182D01*
X139499101Y-98563932D01*
X139717608Y-98384608D01*
X139896932Y-98166101D01*
X140030182Y-97916808D01*
X140112236Y-97646309D01*
X140139943Y-97365000D01*
X140112236Y-97083691D01*
X140030182Y-96813192D01*
X139896932Y-96563899D01*
X139717608Y-96345392D01*
X139499101Y-96166068D01*
X139249808Y-96032818D01*
X138979309Y-95950764D01*
X138768492Y-95930000D01*
X138627508Y-95930000D01*
X138416691Y-95950764D01*
X138146192Y-96032818D01*
X137896899Y-96166068D01*
X137678392Y-96345392D01*
X137499068Y-96563899D01*
X137365818Y-96813192D01*
X137283764Y-97083691D01*
X137264429Y-97279999D01*
X135091464Y-97279999D01*
X135047998Y-97275718D01*
X135004532Y-97279999D01*
X135004522Y-97279999D01*
X134874509Y-97292804D01*
X134707686Y-97343410D01*
X134553940Y-97425588D01*
X134553938Y-97425589D01*
X134553939Y-97425589D01*
X134452952Y-97508467D01*
X134452950Y-97508469D01*
X134419182Y-97536182D01*
X134391469Y-97569950D01*
X131852955Y-100108465D01*
X131819182Y-100136182D01*
X131708588Y-100270941D01*
X131626410Y-100424687D01*
X131575804Y-100591510D01*
X131562999Y-100721523D01*
X131562999Y-100721530D01*
X131558718Y-100764999D01*
X131562999Y-100808468D01*
X131563000Y-104940150D01*
X131558718Y-104983629D01*
X131575804Y-105157119D01*
X131626411Y-105323942D01*
X131653856Y-105375289D01*
X131499068Y-105563899D01*
X131365818Y-105813192D01*
X131283764Y-106083691D01*
X131256057Y-106365000D01*
X131273125Y-106538296D01*
X127832958Y-109978464D01*
X127832953Y-109978468D01*
X127832951Y-109978470D01*
X127799183Y-110006183D01*
X127771470Y-110039951D01*
X127331422Y-110480000D01*
X123632521Y-110480000D01*
X123612637Y-110450241D01*
X123412759Y-110250363D01*
X123177727Y-110093320D01*
X122916574Y-109985147D01*
X122639335Y-109930000D01*
X122356665Y-109930000D01*
X122079426Y-109985147D01*
X121818273Y-110093320D01*
X121583241Y-110250363D01*
X121383363Y-110450241D01*
X121249308Y-110650869D01*
X121234671Y-110623486D01*
X120990702Y-110551903D01*
X120177605Y-111365000D01*
X120990702Y-112178097D01*
X121234671Y-112106514D01*
X121248324Y-112077659D01*
X121383363Y-112279759D01*
X121583241Y-112479637D01*
X121818273Y-112636680D01*
X122079426Y-112744853D01*
X122356665Y-112800000D01*
X122639335Y-112800000D01*
X122916574Y-112744853D01*
X123177727Y-112636680D01*
X123412759Y-112479637D01*
X123612637Y-112279759D01*
X123632521Y-112250000D01*
X127654531Y-112250000D01*
X127698000Y-112254281D01*
X127741469Y-112250000D01*
X127741477Y-112250000D01*
X127871490Y-112237195D01*
X128038313Y-112186589D01*
X128192059Y-112104411D01*
X128326817Y-111993817D01*
X128354534Y-111960044D01*
X128680282Y-111634296D01*
X128794579Y-111520000D01*
X137862941Y-111520000D01*
X137968013Y-111677252D01*
X138195748Y-111904987D01*
X138304600Y-111977720D01*
X138282192Y-112039587D01*
X139238000Y-112995395D01*
X140193808Y-112039587D01*
X140171400Y-111977720D01*
X140280252Y-111904987D01*
X140507987Y-111677252D01*
X140686918Y-111409463D01*
X140810168Y-111111912D01*
X140873000Y-110796033D01*
X140873000Y-110473967D01*
X140810168Y-110158088D01*
X140686918Y-109860537D01*
X140507987Y-109592748D01*
X140280252Y-109365013D01*
X140280233Y-109365000D01*
X140280252Y-109364987D01*
X140507987Y-109137252D01*
X140686918Y-108869463D01*
X140810168Y-108571912D01*
X140873000Y-108256033D01*
X140873000Y-107980001D01*
X142224530Y-107980001D01*
X142267999Y-107984282D01*
X142311468Y-107980001D01*
X142311476Y-107980001D01*
X142441489Y-107967196D01*
X142608312Y-107916590D01*
X142762058Y-107834412D01*
X142896816Y-107723818D01*
X142924533Y-107690045D01*
X145123000Y-105491578D01*
X145123000Y-105716033D01*
X145185832Y-106031912D01*
X145309082Y-106329463D01*
X145488013Y-106597252D01*
X145715748Y-106824987D01*
X145715767Y-106825000D01*
X145715748Y-106825013D01*
X145488013Y-107052748D01*
X145309082Y-107320537D01*
X145185832Y-107618088D01*
X145123000Y-107933967D01*
X145123000Y-108256033D01*
X145159897Y-108441525D01*
X144712955Y-108888467D01*
X144679182Y-108916184D01*
X144568588Y-109050943D01*
X144486410Y-109204689D01*
X144472555Y-109250363D01*
X144443728Y-109345392D01*
X144435804Y-109371512D01*
X144422999Y-109501525D01*
X144422999Y-109501532D01*
X144418718Y-109545001D01*
X144422999Y-109588470D01*
X144423000Y-119839120D01*
X144418718Y-119882599D01*
X144435804Y-120056089D01*
X144486411Y-120222912D01*
X144568589Y-120376658D01*
X144651467Y-120477645D01*
X144651470Y-120477648D01*
X144679183Y-120511416D01*
X144712950Y-120539129D01*
X146360066Y-122186244D01*
X146264223Y-122195684D01*
X145981736Y-122281375D01*
X145721394Y-122420531D01*
X145493203Y-122607803D01*
X145305931Y-122835995D01*
X145288000Y-122869541D01*
X145270069Y-122835994D01*
X145082797Y-122607803D01*
X144854605Y-122420531D01*
X144594263Y-122281375D01*
X144311776Y-122195684D01*
X144018000Y-122166749D01*
X143724223Y-122195684D01*
X143441736Y-122281375D01*
X143181394Y-122420531D01*
X142953203Y-122607803D01*
X142765931Y-122835995D01*
X142748000Y-122869541D01*
X142730069Y-122835994D01*
X142542797Y-122607803D01*
X142314605Y-122420531D01*
X142054263Y-122281375D01*
X141771776Y-122195684D01*
X141478000Y-122166749D01*
X141184223Y-122195684D01*
X140901736Y-122281375D01*
X140641394Y-122420531D01*
X140413203Y-122607803D01*
X140225931Y-122835995D01*
X140208000Y-122869541D01*
X140190069Y-122835994D01*
X140002797Y-122607803D01*
X139774605Y-122420531D01*
X139514263Y-122281375D01*
X139231776Y-122195684D01*
X138938000Y-122166749D01*
X138644223Y-122195684D01*
X138361736Y-122281375D01*
X138101394Y-122420531D01*
X137873203Y-122607803D01*
X137685931Y-122835995D01*
X137546775Y-123096337D01*
X137461084Y-123378824D01*
X137439400Y-123598982D01*
X137439400Y-124051019D01*
X137461084Y-124271177D01*
X137546775Y-124553664D01*
X137685931Y-124814006D01*
X137873203Y-125042197D01*
X138101395Y-125229469D01*
X138361737Y-125368625D01*
X138644224Y-125454316D01*
X138938000Y-125483251D01*
X139231777Y-125454316D01*
X139514264Y-125368625D01*
X139774606Y-125229469D01*
X140002797Y-125042197D01*
X140190069Y-124814006D01*
X140208000Y-124780459D01*
X140225931Y-124814006D01*
X140413203Y-125042197D01*
X140641395Y-125229469D01*
X140901737Y-125368625D01*
X141184224Y-125454316D01*
X141478000Y-125483251D01*
X141771777Y-125454316D01*
X142054264Y-125368625D01*
X142314606Y-125229469D01*
X142542797Y-125042197D01*
X142730069Y-124814006D01*
X142748000Y-124780459D01*
X142765931Y-124814006D01*
X142953203Y-125042197D01*
X143181395Y-125229469D01*
X143441737Y-125368625D01*
X143724224Y-125454316D01*
X144018000Y-125483251D01*
X144311777Y-125454316D01*
X144594264Y-125368625D01*
X144854606Y-125229469D01*
X145082797Y-125042197D01*
X145270069Y-124814006D01*
X145288000Y-124780459D01*
X145305931Y-124814006D01*
X145493203Y-125042197D01*
X145721395Y-125229469D01*
X145981737Y-125368625D01*
X146264224Y-125454316D01*
X146558000Y-125483251D01*
X146851777Y-125454316D01*
X147134264Y-125368625D01*
X147394606Y-125229469D01*
X147622797Y-125042197D01*
X147810069Y-124814006D01*
X147828000Y-124780459D01*
X147845931Y-124814006D01*
X148033203Y-125042197D01*
X148261395Y-125229469D01*
X148521737Y-125368625D01*
X148804224Y-125454316D01*
X149098000Y-125483251D01*
X149391777Y-125454316D01*
X149674264Y-125368625D01*
X149934606Y-125229469D01*
X150162797Y-125042197D01*
X150350069Y-124814006D01*
X150371424Y-124774053D01*
X150519514Y-124976729D01*
X150735965Y-125175733D01*
X150987081Y-125328686D01*
X151263211Y-125429709D01*
X151278974Y-125432358D01*
X151511000Y-125311217D01*
X151511000Y-123952000D01*
X151765000Y-123952000D01*
X151765000Y-125311217D01*
X151997026Y-125432358D01*
X152012789Y-125429709D01*
X152288919Y-125328686D01*
X152540035Y-125175733D01*
X152756486Y-124976729D01*
X152908000Y-124769367D01*
X153059514Y-124976729D01*
X153275965Y-125175733D01*
X153527081Y-125328686D01*
X153803211Y-125429709D01*
X153818974Y-125432358D01*
X154051000Y-125311217D01*
X154051000Y-123952000D01*
X151765000Y-123952000D01*
X151511000Y-123952000D01*
X151491000Y-123952000D01*
X151491000Y-123698000D01*
X151511000Y-123698000D01*
X151511000Y-122338783D01*
X151765000Y-122338783D01*
X151765000Y-123698000D01*
X154051000Y-123698000D01*
X154051000Y-122338783D01*
X154305000Y-122338783D01*
X154305000Y-123698000D01*
X154325000Y-123698000D01*
X154325000Y-123952000D01*
X154305000Y-123952000D01*
X154305000Y-125311217D01*
X154537026Y-125432358D01*
X154552789Y-125429709D01*
X154828919Y-125328686D01*
X155080035Y-125175733D01*
X155296486Y-124976729D01*
X155444576Y-124774053D01*
X155465931Y-124814006D01*
X155653203Y-125042197D01*
X155881395Y-125229469D01*
X156141737Y-125368625D01*
X156424224Y-125454316D01*
X156718000Y-125483251D01*
X157011777Y-125454316D01*
X157294264Y-125368625D01*
X157554606Y-125229469D01*
X157782797Y-125042197D01*
X157970069Y-124814006D01*
X158109225Y-124553663D01*
X158194916Y-124271176D01*
X158216600Y-124051018D01*
X158216600Y-123598981D01*
X158194916Y-123378823D01*
X158109225Y-123096336D01*
X157970069Y-122835994D01*
X157782797Y-122607803D01*
X157554605Y-122420531D01*
X157294263Y-122281375D01*
X157011776Y-122195684D01*
X156718000Y-122166749D01*
X156424223Y-122195684D01*
X156141736Y-122281375D01*
X155881394Y-122420531D01*
X155653203Y-122607803D01*
X155465931Y-122835995D01*
X155444576Y-122875947D01*
X155296486Y-122673271D01*
X155080035Y-122474267D01*
X154828919Y-122321314D01*
X154552789Y-122220291D01*
X154537026Y-122217642D01*
X154305000Y-122338783D01*
X154051000Y-122338783D01*
X153818974Y-122217642D01*
X153803211Y-122220291D01*
X153527081Y-122321314D01*
X153275965Y-122474267D01*
X153059514Y-122673271D01*
X152908000Y-122880633D01*
X152756486Y-122673271D01*
X152540035Y-122474267D01*
X152288919Y-122321314D01*
X152012789Y-122220291D01*
X151997026Y-122217642D01*
X151765000Y-122338783D01*
X151511000Y-122338783D01*
X151278974Y-122217642D01*
X151263211Y-122220291D01*
X150987081Y-122321314D01*
X150735965Y-122474267D01*
X150519514Y-122673271D01*
X150371424Y-122875947D01*
X150350069Y-122835994D01*
X150162797Y-122607803D01*
X149934605Y-122420531D01*
X149674263Y-122281375D01*
X149391776Y-122195684D01*
X149098000Y-122166749D01*
X148866526Y-122189548D01*
X146192999Y-119516021D01*
X146192999Y-114710680D01*
X146281088Y-114747168D01*
X146596967Y-114810000D01*
X146919033Y-114810000D01*
X147234912Y-114747168D01*
X147532463Y-114623918D01*
X147800252Y-114444987D01*
X148027987Y-114217252D01*
X148206918Y-113949463D01*
X148330168Y-113651912D01*
X148393000Y-113336033D01*
X148393000Y-113013967D01*
X148330168Y-112698088D01*
X148206918Y-112400537D01*
X148027987Y-112132748D01*
X147800252Y-111905013D01*
X147800233Y-111905000D01*
X147800252Y-111904987D01*
X148027987Y-111677252D01*
X148133059Y-111520000D01*
X151443368Y-111520000D01*
X151496899Y-111563932D01*
X151746192Y-111697182D01*
X152016691Y-111779236D01*
X152227508Y-111800000D01*
X152368492Y-111800000D01*
X152579309Y-111779236D01*
X152849808Y-111697182D01*
X153099101Y-111563932D01*
X153317608Y-111384608D01*
X153496932Y-111166101D01*
X153630182Y-110916808D01*
X153712236Y-110646309D01*
X153739943Y-110365000D01*
X153712236Y-110083691D01*
X153630182Y-109813192D01*
X153496932Y-109563899D01*
X153317608Y-109345392D01*
X153183000Y-109234922D01*
X153183000Y-102431578D01*
X155821561Y-99793017D01*
X155856665Y-99800000D01*
X156139335Y-99800000D01*
X156416574Y-99744853D01*
X156677727Y-99636680D01*
X156912759Y-99479637D01*
X157112637Y-99279759D01*
X157269680Y-99044727D01*
X157377853Y-98783574D01*
X157433000Y-98506335D01*
X157433000Y-98450001D01*
X158304520Y-98450001D01*
X158347989Y-98454282D01*
X158391458Y-98450001D01*
X158391466Y-98450001D01*
X158521479Y-98437196D01*
X158688302Y-98386590D01*
X158842048Y-98304412D01*
X158976806Y-98193818D01*
X159004523Y-98160045D01*
X159843050Y-97321519D01*
X159876817Y-97293807D01*
X159987411Y-97159049D01*
X160069589Y-97005303D01*
X160120195Y-96838480D01*
X160133000Y-96708467D01*
X160133000Y-96708459D01*
X160137281Y-96664990D01*
X160133000Y-96621521D01*
X160133000Y-87981578D01*
X161614579Y-86500000D01*
X162631422Y-86500000D01*
X163113000Y-86981579D01*
X163113000Y-87321531D01*
X163108719Y-87365000D01*
X163113000Y-87408469D01*
X163113000Y-87408477D01*
X163120753Y-87487195D01*
X163125805Y-87538490D01*
X163176412Y-87705313D01*
X163258590Y-87859059D01*
X163341468Y-87960046D01*
X163341471Y-87960049D01*
X163369184Y-87993817D01*
X163402951Y-88021530D01*
X166569983Y-91188561D01*
X166563000Y-91223665D01*
X166563000Y-91506335D01*
X166618147Y-91783574D01*
X166726320Y-92044727D01*
X166883363Y-92279759D01*
X167083241Y-92479637D01*
X167318273Y-92636680D01*
X167579426Y-92744853D01*
X167856665Y-92800000D01*
X168139335Y-92800000D01*
X168416574Y-92744853D01*
X168677727Y-92636680D01*
X168912759Y-92479637D01*
X169112637Y-92279759D01*
X169269680Y-92044727D01*
X169315509Y-91934087D01*
X170863000Y-93481579D01*
X170863001Y-101940144D01*
X170863000Y-101940154D01*
X170863000Y-101980479D01*
X170833241Y-102000363D01*
X170633363Y-102200241D01*
X170499308Y-102400869D01*
X170484671Y-102373486D01*
X170240702Y-102301903D01*
X169427605Y-103115000D01*
X170240702Y-103928097D01*
X170484671Y-103856514D01*
X170498324Y-103827659D01*
X170633363Y-104029759D01*
X170833241Y-104229637D01*
X170863000Y-104249521D01*
X170863001Y-108920000D01*
X170836967Y-108920000D01*
X170521088Y-108982832D01*
X170223537Y-109106082D01*
X169955748Y-109285013D01*
X169728013Y-109512748D01*
X169549082Y-109780537D01*
X169425832Y-110078088D01*
X169363000Y-110393967D01*
X169363000Y-110716033D01*
X169425832Y-111031912D01*
X169549082Y-111329463D01*
X169728013Y-111597252D01*
X169955748Y-111824987D01*
X170064600Y-111897720D01*
X170042192Y-111959587D01*
X170998000Y-112915395D01*
X171953808Y-111959587D01*
X171931400Y-111897720D01*
X172040252Y-111824987D01*
X172267987Y-111597252D01*
X172446918Y-111329463D01*
X172570168Y-111031912D01*
X172633000Y-110716033D01*
X172633000Y-110393967D01*
X172578015Y-110117537D01*
X172620195Y-109978490D01*
X172633000Y-109848477D01*
X172633000Y-109848467D01*
X172637281Y-109805001D01*
X172633000Y-109761535D01*
X172633000Y-104249521D01*
X172662759Y-104229637D01*
X172862637Y-104029759D01*
X173019680Y-103794727D01*
X173127853Y-103533574D01*
X173183000Y-103256335D01*
X173183000Y-102973665D01*
X173127853Y-102696426D01*
X173019680Y-102435273D01*
X172862637Y-102200241D01*
X172662759Y-102000363D01*
X172633000Y-101980479D01*
X172633000Y-93158469D01*
X172637281Y-93115000D01*
X172633000Y-93071531D01*
X172633000Y-93071523D01*
X172620195Y-92941510D01*
X172574520Y-92790941D01*
X172569589Y-92774686D01*
X172487411Y-92620941D01*
X172404532Y-92519953D01*
X172404530Y-92519951D01*
X172376817Y-92486183D01*
X172343050Y-92458471D01*
X168554533Y-88669955D01*
X168526816Y-88636182D01*
X168392058Y-88525588D01*
X168238312Y-88443410D01*
X168071489Y-88392804D01*
X167941476Y-88379999D01*
X167941468Y-88379999D01*
X167897999Y-88375718D01*
X167854530Y-88379999D01*
X167764578Y-88379999D01*
X166073000Y-86688422D01*
X166073000Y-85740059D01*
X166230252Y-85634987D01*
X166364826Y-85500413D01*
X166772192Y-85500413D01*
X166867956Y-85764814D01*
X167157571Y-85905704D01*
X167469108Y-85987384D01*
X167790595Y-86006718D01*
X168109675Y-85962961D01*
X168414088Y-85857795D01*
X168588044Y-85764814D01*
X168683808Y-85500413D01*
X167728000Y-84544605D01*
X166772192Y-85500413D01*
X166364826Y-85500413D01*
X166457987Y-85407252D01*
X166530720Y-85298400D01*
X166592587Y-85320808D01*
X167548395Y-84365000D01*
X166592587Y-83409192D01*
X166530720Y-83431600D01*
X166457987Y-83322748D01*
X166364826Y-83229587D01*
X166772192Y-83229587D01*
X167728000Y-84185395D01*
X168683808Y-83229587D01*
X168588044Y-82965186D01*
X168298429Y-82824296D01*
X167986892Y-82742616D01*
X167665405Y-82723282D01*
X167346325Y-82767039D01*
X167041912Y-82872205D01*
X166867956Y-82965186D01*
X166772192Y-83229587D01*
X166364826Y-83229587D01*
X166230252Y-83095013D01*
X165962463Y-82916082D01*
X165664912Y-82792832D01*
X165349033Y-82730000D01*
X165026967Y-82730000D01*
X164711088Y-82792832D01*
X164413537Y-82916082D01*
X164145748Y-83095013D01*
X163918013Y-83322748D01*
X163812941Y-83480000D01*
X160491467Y-83480000D01*
X160447998Y-83475719D01*
X160404529Y-83480000D01*
X160404521Y-83480000D01*
X160274508Y-83492805D01*
X160107684Y-83543411D01*
X159953939Y-83625589D01*
X159852951Y-83708468D01*
X159852949Y-83708470D01*
X159819181Y-83736183D01*
X159791468Y-83769951D01*
X155356421Y-88204999D01*
X155066466Y-88204999D01*
X155023000Y-88200718D01*
X154979534Y-88204999D01*
X154979524Y-88204999D01*
X154849511Y-88217804D01*
X154682688Y-88268410D01*
X154528942Y-88350588D01*
X154528940Y-88350589D01*
X154528941Y-88350589D01*
X154427954Y-88433467D01*
X154427952Y-88433469D01*
X154394184Y-88461182D01*
X154366471Y-88494950D01*
X152902951Y-89958471D01*
X152869184Y-89986183D01*
X152841471Y-90019951D01*
X152841468Y-90019954D01*
X152758590Y-90120941D01*
X152676412Y-90274687D01*
X152625805Y-90441510D01*
X152608719Y-90615000D01*
X152613001Y-90658479D01*
X152613001Y-90727582D01*
X152595961Y-90603325D01*
X152490795Y-90298912D01*
X152397814Y-90124956D01*
X152133413Y-90029192D01*
X151177605Y-90985000D01*
X152133413Y-91940808D01*
X152397814Y-91845044D01*
X152538704Y-91555429D01*
X152613001Y-91272053D01*
X152613000Y-92248421D01*
X151631422Y-93230000D01*
X149524579Y-93230000D01*
X149213000Y-92918422D01*
X149213000Y-92120413D01*
X150042192Y-92120413D01*
X150137956Y-92384814D01*
X150427571Y-92525704D01*
X150739108Y-92607384D01*
X151060595Y-92626718D01*
X151379675Y-92582961D01*
X151684088Y-92477795D01*
X151858044Y-92384814D01*
X151953808Y-92120413D01*
X150998000Y-91164605D01*
X150042192Y-92120413D01*
X149213000Y-92120413D01*
X149213000Y-91047595D01*
X149356282Y-91047595D01*
X149400039Y-91366675D01*
X149505205Y-91671088D01*
X149598186Y-91845044D01*
X149862587Y-91940808D01*
X150818395Y-90985000D01*
X149862587Y-90029192D01*
X149598186Y-90124956D01*
X149457296Y-90414571D01*
X149375616Y-90726108D01*
X149356282Y-91047595D01*
X149213000Y-91047595D01*
X149213000Y-89330000D01*
X149622941Y-89330000D01*
X149728013Y-89487252D01*
X149955748Y-89714987D01*
X150064600Y-89787720D01*
X150042192Y-89849587D01*
X150998000Y-90805395D01*
X151953808Y-89849587D01*
X151931400Y-89787720D01*
X152040252Y-89714987D01*
X152267987Y-89487252D01*
X152446918Y-89219463D01*
X152570168Y-88921912D01*
X152633000Y-88606033D01*
X152633000Y-88283967D01*
X152570168Y-87968088D01*
X152446918Y-87670537D01*
X152267987Y-87402748D01*
X152040252Y-87175013D01*
X152040233Y-87175000D01*
X152040252Y-87174987D01*
X152267987Y-86947252D01*
X152446918Y-86679463D01*
X152570168Y-86381912D01*
X152633000Y-86066033D01*
X152633000Y-85743967D01*
X152570168Y-85428088D01*
X152446918Y-85130537D01*
X152267987Y-84862748D01*
X152040252Y-84635013D01*
X152040233Y-84635000D01*
X152040252Y-84634987D01*
X152267987Y-84407252D01*
X152446918Y-84139463D01*
X152570168Y-83841912D01*
X152633000Y-83526033D01*
X152633000Y-83203967D01*
X152570168Y-82888088D01*
X152446918Y-82590537D01*
X152267987Y-82322748D01*
X152040252Y-82095013D01*
X152040233Y-82095000D01*
X152040252Y-82094987D01*
X152267987Y-81867252D01*
X152373059Y-81710000D01*
X164266931Y-81710000D01*
X164310400Y-81714281D01*
X164353869Y-81710000D01*
X164353877Y-81710000D01*
X164483890Y-81697195D01*
X164650713Y-81646589D01*
X164804459Y-81564411D01*
X164939217Y-81453817D01*
X164966934Y-81420044D01*
X169186526Y-77200452D01*
X169418000Y-77223251D01*
X169711777Y-77194316D01*
X169994264Y-77108625D01*
X170254606Y-76969469D01*
X170482797Y-76782197D01*
X170670069Y-76554006D01*
X170688000Y-76520459D01*
X170705931Y-76554006D01*
X170893203Y-76782197D01*
X171121395Y-76969469D01*
X171381737Y-77108625D01*
X171664224Y-77194316D01*
X171958000Y-77223251D01*
X172251777Y-77194316D01*
X172534264Y-77108625D01*
X172794606Y-76969469D01*
X173022797Y-76782197D01*
X173210069Y-76554006D01*
X173228000Y-76520459D01*
X173245931Y-76554006D01*
X173433203Y-76782197D01*
X173613001Y-76929753D01*
X173613000Y-79768421D01*
X170614525Y-82766897D01*
X170429033Y-82730000D01*
X170106967Y-82730000D01*
X169791088Y-82792832D01*
X169493537Y-82916082D01*
X169225748Y-83095013D01*
X168998013Y-83322748D01*
X168925280Y-83431600D01*
X168863413Y-83409192D01*
X167907605Y-84365000D01*
X168863413Y-85320808D01*
X168925280Y-85298400D01*
X168998013Y-85407252D01*
X169225748Y-85634987D01*
X169493537Y-85813918D01*
X169791088Y-85937168D01*
X170106967Y-86000000D01*
X170429033Y-86000000D01*
X170744912Y-85937168D01*
X171042463Y-85813918D01*
X171310252Y-85634987D01*
X171537987Y-85407252D01*
X171538000Y-85407233D01*
X171538013Y-85407252D01*
X171765748Y-85634987D01*
X172033537Y-85813918D01*
X172331088Y-85937168D01*
X172646967Y-86000000D01*
X172969033Y-86000000D01*
X173284912Y-85937168D01*
X173582463Y-85813918D01*
X173850252Y-85634987D01*
X174077987Y-85407252D01*
X174256918Y-85139463D01*
X174380168Y-84841912D01*
X174443000Y-84526033D01*
X174443000Y-84203967D01*
X174406197Y-84018946D01*
X174436816Y-83993818D01*
X174547410Y-83859060D01*
X174595512Y-83769066D01*
X176328000Y-82036578D01*
X176328000Y-85944125D01*
X176324565Y-85979000D01*
X176328000Y-86013875D01*
X176328000Y-86013876D01*
X176338273Y-86118183D01*
X176378872Y-86252019D01*
X176444800Y-86375362D01*
X176533525Y-86483474D01*
X176560617Y-86505708D01*
X178868001Y-88813093D01*
X178868001Y-88863294D01*
X178738113Y-88733406D01*
X178301298Y-88441536D01*
X177815935Y-88240492D01*
X177300677Y-88138000D01*
X176775323Y-88138000D01*
X176260065Y-88240492D01*
X175774702Y-88441536D01*
X175337887Y-88733406D01*
X174966406Y-89104887D01*
X174674536Y-89541702D01*
X174473492Y-90027065D01*
X174371000Y-90542323D01*
X174371000Y-91067677D01*
X174473492Y-91582935D01*
X174674536Y-92068298D01*
X174966406Y-92505113D01*
X175337887Y-92876594D01*
X175774702Y-93168464D01*
X176260065Y-93369508D01*
X176775323Y-93472000D01*
X177300677Y-93472000D01*
X177815935Y-93369508D01*
X178301298Y-93168464D01*
X178738113Y-92876594D01*
X178868001Y-92746706D01*
X178868000Y-116803293D01*
X178738113Y-116673406D01*
X178301298Y-116381536D01*
X177815935Y-116180492D01*
X177300677Y-116078000D01*
X176775323Y-116078000D01*
X176260065Y-116180492D01*
X175774702Y-116381536D01*
X175337887Y-116673406D01*
X174966406Y-117044887D01*
X174674536Y-117481702D01*
X174657473Y-117522895D01*
X173174533Y-116039955D01*
X173146816Y-116006182D01*
X173012058Y-115895588D01*
X172858312Y-115813410D01*
X172691489Y-115762804D01*
X172633000Y-115757043D01*
X172633000Y-115473967D01*
X172570168Y-115158088D01*
X172446918Y-114860537D01*
X172267987Y-114592748D01*
X172040252Y-114365013D01*
X171931400Y-114292280D01*
X171953808Y-114230413D01*
X170998000Y-113274605D01*
X170042192Y-114230413D01*
X170064600Y-114292280D01*
X169955748Y-114365013D01*
X169728013Y-114592748D01*
X169549082Y-114860537D01*
X169425832Y-115158088D01*
X169363000Y-115473967D01*
X169363000Y-115796033D01*
X169425832Y-116111912D01*
X169549082Y-116409463D01*
X169728013Y-116677252D01*
X169955748Y-116904987D01*
X169955767Y-116905000D01*
X169955748Y-116905013D01*
X169728013Y-117132748D01*
X169549082Y-117400537D01*
X169425832Y-117698088D01*
X169363000Y-118013967D01*
X169363000Y-118336033D01*
X169425832Y-118651912D01*
X169549082Y-118949463D01*
X169728013Y-119217252D01*
X169955748Y-119444987D01*
X170113000Y-119550060D01*
X170113001Y-122344842D01*
X169994263Y-122281375D01*
X169711776Y-122195684D01*
X169418000Y-122166749D01*
X169124223Y-122195684D01*
X168841736Y-122281375D01*
X168581394Y-122420531D01*
X168353203Y-122607803D01*
X168165931Y-122835995D01*
X168148000Y-122869541D01*
X168130069Y-122835994D01*
X167942797Y-122607803D01*
X167714605Y-122420531D01*
X167454263Y-122281375D01*
X167171776Y-122195684D01*
X166878000Y-122166749D01*
X166584223Y-122195684D01*
X166301736Y-122281375D01*
X166041394Y-122420531D01*
X165813203Y-122607803D01*
X165625931Y-122835995D01*
X165608000Y-122869541D01*
X165590069Y-122835994D01*
X165402797Y-122607803D01*
X165174605Y-122420531D01*
X164914263Y-122281375D01*
X164631776Y-122195684D01*
X164338000Y-122166749D01*
X164044223Y-122195684D01*
X163761736Y-122281375D01*
X163501394Y-122420531D01*
X163273203Y-122607803D01*
X163085931Y-122835995D01*
X163068000Y-122869541D01*
X163050069Y-122835994D01*
X162862797Y-122607803D01*
X162683000Y-122460248D01*
X162683000Y-113931578D01*
X163456983Y-113157595D01*
X169356282Y-113157595D01*
X169400039Y-113476675D01*
X169505205Y-113781088D01*
X169598186Y-113955044D01*
X169862587Y-114050808D01*
X170818395Y-113095000D01*
X171177605Y-113095000D01*
X172133413Y-114050808D01*
X172397814Y-113955044D01*
X172538704Y-113665429D01*
X172620384Y-113353892D01*
X172639718Y-113032405D01*
X172595961Y-112713325D01*
X172490795Y-112408912D01*
X172397814Y-112234956D01*
X172133413Y-112139192D01*
X171177605Y-113095000D01*
X170818395Y-113095000D01*
X169862587Y-112139192D01*
X169598186Y-112234956D01*
X169457296Y-112524571D01*
X169375616Y-112836108D01*
X169356282Y-113157595D01*
X163456983Y-113157595D01*
X164821561Y-111793017D01*
X164856665Y-111800000D01*
X165139335Y-111800000D01*
X165416574Y-111744853D01*
X165677727Y-111636680D01*
X165912759Y-111479637D01*
X166112637Y-111279759D01*
X166269680Y-111044727D01*
X166377853Y-110783574D01*
X166433000Y-110506335D01*
X166433000Y-110223665D01*
X166377853Y-109946426D01*
X166269680Y-109685273D01*
X166112637Y-109450241D01*
X165912759Y-109250363D01*
X165677727Y-109093320D01*
X165416574Y-108985147D01*
X165139335Y-108930000D01*
X164856665Y-108930000D01*
X164821561Y-108936983D01*
X162383000Y-106498422D01*
X162383000Y-104249521D01*
X162412759Y-104229637D01*
X162534694Y-104107702D01*
X163184903Y-104107702D01*
X163256486Y-104351671D01*
X163511996Y-104472571D01*
X163786184Y-104541300D01*
X164068512Y-104555217D01*
X164348130Y-104513787D01*
X164614292Y-104418603D01*
X164739514Y-104351671D01*
X164811097Y-104107702D01*
X168434903Y-104107702D01*
X168506486Y-104351671D01*
X168761996Y-104472571D01*
X169036184Y-104541300D01*
X169318512Y-104555217D01*
X169598130Y-104513787D01*
X169864292Y-104418603D01*
X169989514Y-104351671D01*
X170061097Y-104107702D01*
X169248000Y-103294605D01*
X168434903Y-104107702D01*
X164811097Y-104107702D01*
X163998000Y-103294605D01*
X163184903Y-104107702D01*
X162534694Y-104107702D01*
X162612637Y-104029759D01*
X162746692Y-103829131D01*
X162761329Y-103856514D01*
X163005298Y-103928097D01*
X163818395Y-103115000D01*
X164177605Y-103115000D01*
X164990702Y-103928097D01*
X165234671Y-103856514D01*
X165355571Y-103601004D01*
X165424300Y-103326816D01*
X165431265Y-103185512D01*
X167807783Y-103185512D01*
X167849213Y-103465130D01*
X167944397Y-103731292D01*
X168011329Y-103856514D01*
X168255298Y-103928097D01*
X169068395Y-103115000D01*
X168255298Y-102301903D01*
X168011329Y-102373486D01*
X167890429Y-102628996D01*
X167821700Y-102903184D01*
X167807783Y-103185512D01*
X165431265Y-103185512D01*
X165438217Y-103044488D01*
X165396787Y-102764870D01*
X165301603Y-102498708D01*
X165234671Y-102373486D01*
X164990702Y-102301903D01*
X164177605Y-103115000D01*
X163818395Y-103115000D01*
X163005298Y-102301903D01*
X162761329Y-102373486D01*
X162747676Y-102402341D01*
X162612637Y-102200241D01*
X162534694Y-102122298D01*
X163184903Y-102122298D01*
X163998000Y-102935395D01*
X164811097Y-102122298D01*
X168434903Y-102122298D01*
X169248000Y-102935395D01*
X170061097Y-102122298D01*
X169989514Y-101878329D01*
X169734004Y-101757429D01*
X169459816Y-101688700D01*
X169177488Y-101674783D01*
X168897870Y-101716213D01*
X168631708Y-101811397D01*
X168506486Y-101878329D01*
X168434903Y-102122298D01*
X164811097Y-102122298D01*
X164739514Y-101878329D01*
X164484004Y-101757429D01*
X164209816Y-101688700D01*
X163927488Y-101674783D01*
X163647870Y-101716213D01*
X163381708Y-101811397D01*
X163256486Y-101878329D01*
X163184903Y-102122298D01*
X162534694Y-102122298D01*
X162412759Y-102000363D01*
X162177727Y-101843320D01*
X161916574Y-101735147D01*
X161639335Y-101680000D01*
X161356665Y-101680000D01*
X161079426Y-101735147D01*
X160818273Y-101843320D01*
X160583241Y-102000363D01*
X160383363Y-102200241D01*
X160226320Y-102435273D01*
X160118147Y-102696426D01*
X160063000Y-102973665D01*
X160063000Y-103256335D01*
X160118147Y-103533574D01*
X160226320Y-103794727D01*
X160383363Y-104029759D01*
X160583241Y-104229637D01*
X160613000Y-104249521D01*
X160613001Y-106821521D01*
X160608719Y-106865000D01*
X160625805Y-107038490D01*
X160676412Y-107205313D01*
X160758590Y-107359059D01*
X160841468Y-107460046D01*
X160841471Y-107460049D01*
X160869184Y-107493817D01*
X160902951Y-107521529D01*
X163569983Y-110188561D01*
X163563000Y-110223665D01*
X163563000Y-110506335D01*
X163569983Y-110541439D01*
X161202951Y-112908471D01*
X161169184Y-112936183D01*
X161141471Y-112969951D01*
X161141468Y-112969954D01*
X161058590Y-113070941D01*
X160976412Y-113224687D01*
X160925805Y-113391510D01*
X160908719Y-113565000D01*
X160913001Y-113608479D01*
X160913000Y-122460247D01*
X160733203Y-122607803D01*
X160545931Y-122835995D01*
X160406775Y-123096337D01*
X160321084Y-123378824D01*
X160299400Y-123598982D01*
X160299400Y-124051019D01*
X160321084Y-124271177D01*
X160406775Y-124553664D01*
X160545931Y-124814006D01*
X160733203Y-125042197D01*
X160961395Y-125229469D01*
X161221737Y-125368625D01*
X161504224Y-125454316D01*
X161798000Y-125483251D01*
X162091777Y-125454316D01*
X162374264Y-125368625D01*
X162634606Y-125229469D01*
X162862797Y-125042197D01*
X163050069Y-124814006D01*
X163068000Y-124780459D01*
X163085931Y-124814006D01*
X163273203Y-125042197D01*
X163501395Y-125229469D01*
X163761737Y-125368625D01*
X164044224Y-125454316D01*
X164338000Y-125483251D01*
X164631777Y-125454316D01*
X164914264Y-125368625D01*
X165174606Y-125229469D01*
X165402797Y-125042197D01*
X165590069Y-124814006D01*
X165608000Y-124780459D01*
X165625931Y-124814006D01*
X165813203Y-125042197D01*
X166041395Y-125229469D01*
X166301737Y-125368625D01*
X166584224Y-125454316D01*
X166878000Y-125483251D01*
X167171777Y-125454316D01*
X167454264Y-125368625D01*
X167714606Y-125229469D01*
X167942797Y-125042197D01*
X168130069Y-124814006D01*
X168148000Y-124780459D01*
X168165931Y-124814006D01*
X168353203Y-125042197D01*
X168581395Y-125229469D01*
X168841737Y-125368625D01*
X169124224Y-125454316D01*
X169418000Y-125483251D01*
X169711777Y-125454316D01*
X169994264Y-125368625D01*
X170254606Y-125229469D01*
X170482797Y-125042197D01*
X170670069Y-124814006D01*
X170688000Y-124780459D01*
X170705931Y-124814006D01*
X170893203Y-125042197D01*
X171121395Y-125229469D01*
X171381737Y-125368625D01*
X171664224Y-125454316D01*
X171958000Y-125483251D01*
X172251777Y-125454316D01*
X172534264Y-125368625D01*
X172794606Y-125229469D01*
X173022797Y-125042197D01*
X173210069Y-124814006D01*
X173228000Y-124780459D01*
X173245931Y-124814006D01*
X173433203Y-125042197D01*
X173661395Y-125229469D01*
X173921737Y-125368625D01*
X174204224Y-125454316D01*
X174498000Y-125483251D01*
X174791777Y-125454316D01*
X175074264Y-125368625D01*
X175334606Y-125229469D01*
X175562797Y-125042197D01*
X175750069Y-124814006D01*
X175889225Y-124553663D01*
X175974916Y-124271176D01*
X175996600Y-124051018D01*
X175996600Y-123598981D01*
X175974916Y-123378823D01*
X175889225Y-123096336D01*
X175750069Y-122835994D01*
X175562797Y-122607803D01*
X175383000Y-122460248D01*
X175383000Y-120846737D01*
X175774702Y-121108464D01*
X176260065Y-121309508D01*
X176775323Y-121412000D01*
X177300677Y-121412000D01*
X177815935Y-121309508D01*
X178301298Y-121108464D01*
X178738113Y-120816594D01*
X178868000Y-120686707D01*
X178868000Y-120990908D01*
X176560617Y-123298292D01*
X176533526Y-123320525D01*
X176511293Y-123347616D01*
X176444801Y-123428637D01*
X176378872Y-123551981D01*
X176338274Y-123685816D01*
X176324565Y-123825000D01*
X176328001Y-123859885D01*
X176328000Y-125655000D01*
X126909707Y-125655000D01*
X127039594Y-125525113D01*
X127331464Y-125088298D01*
X127532508Y-124602935D01*
X127635000Y-124087677D01*
X127635000Y-123562323D01*
X127532508Y-123047065D01*
X127331464Y-122561702D01*
X127039594Y-122124887D01*
X126668113Y-121753406D01*
X126231298Y-121461536D01*
X125745935Y-121260492D01*
X125230677Y-121158000D01*
X124705323Y-121158000D01*
X124190065Y-121260492D01*
X123704702Y-121461536D01*
X123267887Y-121753406D01*
X122896406Y-122124887D01*
X122604536Y-122561702D01*
X122403492Y-123047065D01*
X122301000Y-123562323D01*
X122301000Y-124087677D01*
X122403492Y-124602935D01*
X122604536Y-125088298D01*
X122896406Y-125525113D01*
X123026293Y-125655000D01*
X111708000Y-125655000D01*
X111708000Y-114310413D01*
X138282192Y-114310413D01*
X138377956Y-114574814D01*
X138667571Y-114715704D01*
X138979108Y-114797384D01*
X139300595Y-114816718D01*
X139619675Y-114772961D01*
X139924088Y-114667795D01*
X140098044Y-114574814D01*
X140193808Y-114310413D01*
X139238000Y-113354605D01*
X138282192Y-114310413D01*
X111708000Y-114310413D01*
X111708000Y-113237595D01*
X137596282Y-113237595D01*
X137640039Y-113556675D01*
X137745205Y-113861088D01*
X137838186Y-114035044D01*
X138102587Y-114130808D01*
X139058395Y-113175000D01*
X139417605Y-113175000D01*
X140373413Y-114130808D01*
X140637814Y-114035044D01*
X140778704Y-113745429D01*
X140860384Y-113433892D01*
X140879718Y-113112405D01*
X140835961Y-112793325D01*
X140730795Y-112488912D01*
X140637814Y-112314956D01*
X140373413Y-112219192D01*
X139417605Y-113175000D01*
X139058395Y-113175000D01*
X138102587Y-112219192D01*
X137838186Y-112314956D01*
X137697296Y-112604571D01*
X137615616Y-112916108D01*
X137596282Y-113237595D01*
X111708000Y-113237595D01*
X111708000Y-112357702D01*
X119184903Y-112357702D01*
X119256486Y-112601671D01*
X119511996Y-112722571D01*
X119786184Y-112791300D01*
X120068512Y-112805217D01*
X120348130Y-112763787D01*
X120614292Y-112668603D01*
X120739514Y-112601671D01*
X120811097Y-112357702D01*
X119998000Y-111544605D01*
X119184903Y-112357702D01*
X111708000Y-112357702D01*
X111708000Y-111435512D01*
X118557783Y-111435512D01*
X118599213Y-111715130D01*
X118694397Y-111981292D01*
X118761329Y-112106514D01*
X119005298Y-112178097D01*
X119818395Y-111365000D01*
X119005298Y-110551903D01*
X118761329Y-110623486D01*
X118640429Y-110878996D01*
X118571700Y-111153184D01*
X118557783Y-111435512D01*
X111708000Y-111435512D01*
X111708000Y-110372298D01*
X119184903Y-110372298D01*
X119998000Y-111185395D01*
X120811097Y-110372298D01*
X120739514Y-110128329D01*
X120484004Y-110007429D01*
X120209816Y-109938700D01*
X119927488Y-109924783D01*
X119647870Y-109966213D01*
X119381708Y-110061397D01*
X119256486Y-110128329D01*
X119184903Y-110372298D01*
X111708000Y-110372298D01*
X111708000Y-107357702D01*
X119184903Y-107357702D01*
X119256486Y-107601671D01*
X119511996Y-107722571D01*
X119786184Y-107791300D01*
X120068512Y-107805217D01*
X120348130Y-107763787D01*
X120614292Y-107668603D01*
X120739514Y-107601671D01*
X120811097Y-107357702D01*
X119998000Y-106544605D01*
X119184903Y-107357702D01*
X111708000Y-107357702D01*
X111708000Y-106435512D01*
X118557783Y-106435512D01*
X118599213Y-106715130D01*
X118694397Y-106981292D01*
X118761329Y-107106514D01*
X119005298Y-107178097D01*
X119818395Y-106365000D01*
X120177605Y-106365000D01*
X120990702Y-107178097D01*
X121234671Y-107106514D01*
X121355571Y-106851004D01*
X121424300Y-106576816D01*
X121438217Y-106294488D01*
X121396787Y-106014870D01*
X121301603Y-105748708D01*
X121234671Y-105623486D01*
X120990702Y-105551903D01*
X120177605Y-106365000D01*
X119818395Y-106365000D01*
X119005298Y-105551903D01*
X118761329Y-105623486D01*
X118640429Y-105878996D01*
X118571700Y-106153184D01*
X118557783Y-106435512D01*
X111708000Y-106435512D01*
X111708000Y-105372298D01*
X119184903Y-105372298D01*
X119998000Y-106185395D01*
X120811097Y-105372298D01*
X120739514Y-105128329D01*
X120484004Y-105007429D01*
X120209816Y-104938700D01*
X119927488Y-104924783D01*
X119647870Y-104966213D01*
X119381708Y-105061397D01*
X119256486Y-105128329D01*
X119184903Y-105372298D01*
X111708000Y-105372298D01*
X111708000Y-102357702D01*
X120184903Y-102357702D01*
X120256486Y-102601671D01*
X120511996Y-102722571D01*
X120786184Y-102791300D01*
X121068512Y-102805217D01*
X121348130Y-102763787D01*
X121614292Y-102668603D01*
X121739514Y-102601671D01*
X121811097Y-102357702D01*
X120998000Y-101544605D01*
X120184903Y-102357702D01*
X111708000Y-102357702D01*
X111708000Y-101435512D01*
X119557783Y-101435512D01*
X119599213Y-101715130D01*
X119694397Y-101981292D01*
X119761329Y-102106514D01*
X120005298Y-102178097D01*
X120818395Y-101365000D01*
X121177605Y-101365000D01*
X121990702Y-102178097D01*
X122234671Y-102106514D01*
X122355571Y-101851004D01*
X122424300Y-101576816D01*
X122438217Y-101294488D01*
X122396787Y-101014870D01*
X122301603Y-100748708D01*
X122234671Y-100623486D01*
X121990702Y-100551903D01*
X121177605Y-101365000D01*
X120818395Y-101365000D01*
X120005298Y-100551903D01*
X119761329Y-100623486D01*
X119640429Y-100878996D01*
X119571700Y-101153184D01*
X119557783Y-101435512D01*
X111708000Y-101435512D01*
X111708000Y-100372298D01*
X120184903Y-100372298D01*
X120998000Y-101185395D01*
X121811097Y-100372298D01*
X121739514Y-100128329D01*
X121484004Y-100007429D01*
X121209816Y-99938700D01*
X120927488Y-99924783D01*
X120647870Y-99966213D01*
X120381708Y-100061397D01*
X120256486Y-100128329D01*
X120184903Y-100372298D01*
X111708000Y-100372298D01*
X111708000Y-80825000D01*
X114177286Y-80825000D01*
X114177286Y-84645000D01*
X136318715Y-84645000D01*
X136318715Y-80825000D01*
X114177286Y-80825000D01*
X111708000Y-80825000D01*
X111708000Y-73735000D01*
X124296293Y-73735000D01*
X124166406Y-73864887D01*
X124166406Y-73864887D01*
G37*
X124166406Y-73864887D02*
X123874536Y-74301702D01*
X123673492Y-74787065D01*
X123571000Y-75302323D01*
X123571000Y-75827677D01*
X123673492Y-76342935D01*
X123874536Y-76828298D01*
X124166406Y-77265113D01*
X124537887Y-77636594D01*
X124974702Y-77928464D01*
X125460065Y-78129508D01*
X125975323Y-78232000D01*
X126500677Y-78232000D01*
X127015935Y-78129508D01*
X127501298Y-77928464D01*
X127938113Y-77636594D01*
X128309594Y-77265113D01*
X128601464Y-76828298D01*
X128657001Y-76694219D01*
X128729203Y-76782197D01*
X128957395Y-76969469D01*
X129217737Y-77108625D01*
X129500224Y-77194316D01*
X129794000Y-77223251D01*
X130087777Y-77194316D01*
X130370264Y-77108625D01*
X130630606Y-76969469D01*
X130858797Y-76782197D01*
X131046069Y-76554006D01*
X131064000Y-76520459D01*
X131081931Y-76554006D01*
X131269203Y-76782197D01*
X131497395Y-76969469D01*
X131757737Y-77108625D01*
X132040224Y-77194316D01*
X132334000Y-77223251D01*
X132627777Y-77194316D01*
X132910264Y-77108625D01*
X133170606Y-76969469D01*
X133398797Y-76782197D01*
X133586069Y-76554006D01*
X133604000Y-76520459D01*
X133621931Y-76554006D01*
X133809203Y-76782197D01*
X134037395Y-76969469D01*
X134297737Y-77108625D01*
X134580224Y-77194316D01*
X134874000Y-77223251D01*
X135167777Y-77194316D01*
X135450264Y-77108625D01*
X135710606Y-76969469D01*
X135938797Y-76782197D01*
X136126069Y-76554006D01*
X136147424Y-76514053D01*
X136295514Y-76716729D01*
X136511965Y-76915733D01*
X136763081Y-77068686D01*
X137039211Y-77169709D01*
X137054974Y-77172358D01*
X137287000Y-77051217D01*
X137287000Y-75692000D01*
X137267000Y-75692000D01*
X137267000Y-75438000D01*
X137287000Y-75438000D01*
X137287000Y-74078783D01*
X137054974Y-73957642D01*
X137039211Y-73960291D01*
X136763081Y-74061314D01*
X136511965Y-74214267D01*
X136295514Y-74413271D01*
X136147424Y-74615947D01*
X136126069Y-74575994D01*
X135938797Y-74347803D01*
X135710605Y-74160531D01*
X135450263Y-74021375D01*
X135167776Y-73935684D01*
X134874000Y-73906749D01*
X134580223Y-73935684D01*
X134297736Y-74021375D01*
X134037394Y-74160531D01*
X133809203Y-74347803D01*
X133621931Y-74575995D01*
X133604000Y-74609541D01*
X133586069Y-74575994D01*
X133398797Y-74347803D01*
X133170605Y-74160531D01*
X132910263Y-74021375D01*
X132627776Y-73935684D01*
X132334000Y-73906749D01*
X132040223Y-73935684D01*
X131757736Y-74021375D01*
X131497394Y-74160531D01*
X131269203Y-74347803D01*
X131081931Y-74575995D01*
X131064000Y-74609541D01*
X131046069Y-74575994D01*
X130858797Y-74347803D01*
X130630605Y-74160531D01*
X130370263Y-74021375D01*
X130087776Y-73935684D01*
X129794000Y-73906749D01*
X129500223Y-73935684D01*
X129217736Y-74021375D01*
X128957394Y-74160531D01*
X128729203Y-74347803D01*
X128657001Y-74435781D01*
X128601464Y-74301702D01*
X128309594Y-73864887D01*
X128179707Y-73735000D01*
X171128429Y-73735000D01*
X171085805Y-73875511D01*
X171073000Y-74005524D01*
X171073000Y-74005531D01*
X171068719Y-74049000D01*
X171073000Y-74092470D01*
X171073000Y-74200247D01*
X170893203Y-74347803D01*
X170705931Y-74575995D01*
X170688000Y-74609541D01*
X170670069Y-74575994D01*
X170482797Y-74347803D01*
X170254605Y-74160531D01*
X169994263Y-74021375D01*
X169711776Y-73935684D01*
X169418000Y-73906749D01*
X169124223Y-73935684D01*
X168841736Y-74021375D01*
X168581394Y-74160531D01*
X168353203Y-74347803D01*
X168165931Y-74575995D01*
X168148000Y-74609541D01*
X168130069Y-74575994D01*
X167942797Y-74347803D01*
X167714605Y-74160531D01*
X167454263Y-74021375D01*
X167171776Y-73935684D01*
X166878000Y-73906749D01*
X166584223Y-73935684D01*
X166301736Y-74021375D01*
X166041394Y-74160531D01*
X165813203Y-74347803D01*
X165625931Y-74575995D01*
X165608000Y-74609541D01*
X165590069Y-74575994D01*
X165402797Y-74347803D01*
X165174605Y-74160531D01*
X164914263Y-74021375D01*
X164631776Y-73935684D01*
X164338000Y-73906749D01*
X164044223Y-73935684D01*
X163761736Y-74021375D01*
X163501394Y-74160531D01*
X163273203Y-74347803D01*
X163085931Y-74575995D01*
X163068000Y-74609541D01*
X163050069Y-74575994D01*
X162862797Y-74347803D01*
X162634605Y-74160531D01*
X162374263Y-74021375D01*
X162091776Y-73935684D01*
X161798000Y-73906749D01*
X161504223Y-73935684D01*
X161221736Y-74021375D01*
X160961394Y-74160531D01*
X160733203Y-74347803D01*
X160545931Y-74575995D01*
X160528000Y-74609541D01*
X160510069Y-74575994D01*
X160322797Y-74347803D01*
X160094605Y-74160531D01*
X159834263Y-74021375D01*
X159551776Y-73935684D01*
X159258000Y-73906749D01*
X158964223Y-73935684D01*
X158681736Y-74021375D01*
X158421394Y-74160531D01*
X158193203Y-74347803D01*
X158005931Y-74575995D01*
X157988000Y-74609541D01*
X157970069Y-74575994D01*
X157782797Y-74347803D01*
X157554605Y-74160531D01*
X157294263Y-74021375D01*
X157011776Y-73935684D01*
X156718000Y-73906749D01*
X156424223Y-73935684D01*
X156141736Y-74021375D01*
X155881394Y-74160531D01*
X155653203Y-74347803D01*
X155465931Y-74575995D01*
X155326775Y-74836337D01*
X155241084Y-75118824D01*
X155219400Y-75338982D01*
X155219400Y-75791019D01*
X155241084Y-76011177D01*
X155326775Y-76293664D01*
X155465931Y-76554006D01*
X155653203Y-76782197D01*
X155881395Y-76969469D01*
X156141737Y-77108625D01*
X156424224Y-77194316D01*
X156718000Y-77223251D01*
X157011777Y-77194316D01*
X157294264Y-77108625D01*
X157554606Y-76969469D01*
X157782797Y-76782197D01*
X157970069Y-76554006D01*
X157988000Y-76520459D01*
X158005931Y-76554006D01*
X158193203Y-76782197D01*
X158421395Y-76969469D01*
X158681737Y-77108625D01*
X158964224Y-77194316D01*
X159258000Y-77223251D01*
X159551777Y-77194316D01*
X159834264Y-77108625D01*
X160094606Y-76969469D01*
X160322797Y-76782197D01*
X160510069Y-76554006D01*
X160528000Y-76520459D01*
X160545931Y-76554006D01*
X160733203Y-76782197D01*
X160961395Y-76969469D01*
X161221737Y-77108625D01*
X161504224Y-77194316D01*
X161798000Y-77223251D01*
X162091777Y-77194316D01*
X162374264Y-77108625D01*
X162634606Y-76969469D01*
X162862797Y-76782197D01*
X163050069Y-76554006D01*
X163068000Y-76520459D01*
X163085931Y-76554006D01*
X163273203Y-76782197D01*
X163501395Y-76969469D01*
X163761737Y-77108625D01*
X164044224Y-77194316D01*
X164338000Y-77223251D01*
X164631777Y-77194316D01*
X164914264Y-77108625D01*
X165174606Y-76969469D01*
X165402797Y-76782197D01*
X165590069Y-76554006D01*
X165608000Y-76520459D01*
X165625931Y-76554006D01*
X165813203Y-76782197D01*
X166041395Y-76969469D01*
X166301737Y-77108625D01*
X166584224Y-77194316D01*
X166680066Y-77203756D01*
X163943822Y-79940000D01*
X152373059Y-79940000D01*
X152267987Y-79782748D01*
X152040252Y-79555013D01*
X151772463Y-79376082D01*
X151474912Y-79252832D01*
X151159033Y-79190000D01*
X150836967Y-79190000D01*
X150521088Y-79252832D01*
X150223537Y-79376082D01*
X149955748Y-79555013D01*
X149728013Y-79782748D01*
X149549082Y-80050537D01*
X149425832Y-80348088D01*
X149393784Y-80509206D01*
X148459000Y-79574422D01*
X148459000Y-76929753D01*
X148638797Y-76782197D01*
X148826069Y-76554006D01*
X148844000Y-76520459D01*
X148861931Y-76554006D01*
X149049203Y-76782197D01*
X149277395Y-76969469D01*
X149537737Y-77108625D01*
X149820224Y-77194316D01*
X150114000Y-77223251D01*
X150407777Y-77194316D01*
X150690264Y-77108625D01*
X150950606Y-76969469D01*
X151178797Y-76782197D01*
X151366069Y-76554006D01*
X151384000Y-76520459D01*
X151401931Y-76554006D01*
X151589203Y-76782197D01*
X151817395Y-76969469D01*
X152077737Y-77108625D01*
X152360224Y-77194316D01*
X152654000Y-77223251D01*
X152947777Y-77194316D01*
X153230264Y-77108625D01*
X153490606Y-76969469D01*
X153718797Y-76782197D01*
X153906069Y-76554006D01*
X154045225Y-76293663D01*
X154130916Y-76011176D01*
X154152600Y-75791018D01*
X154152600Y-75338981D01*
X154130916Y-75118823D01*
X154045225Y-74836336D01*
X153906069Y-74575994D01*
X153718797Y-74347803D01*
X153490605Y-74160531D01*
X153230263Y-74021375D01*
X152947776Y-73935684D01*
X152654000Y-73906749D01*
X152360223Y-73935684D01*
X152077736Y-74021375D01*
X151817394Y-74160531D01*
X151589203Y-74347803D01*
X151401931Y-74575995D01*
X151384000Y-74609541D01*
X151366069Y-74575994D01*
X151178797Y-74347803D01*
X150950605Y-74160531D01*
X150690263Y-74021375D01*
X150407776Y-73935684D01*
X150114000Y-73906749D01*
X149820223Y-73935684D01*
X149537736Y-74021375D01*
X149277394Y-74160531D01*
X149049203Y-74347803D01*
X148861931Y-74575995D01*
X148844000Y-74609541D01*
X148826069Y-74575994D01*
X148638797Y-74347803D01*
X148410605Y-74160531D01*
X148150263Y-74021375D01*
X147867776Y-73935684D01*
X147574000Y-73906749D01*
X147280223Y-73935684D01*
X146997736Y-74021375D01*
X146737394Y-74160531D01*
X146509203Y-74347803D01*
X146321931Y-74575995D01*
X146304000Y-74609541D01*
X146286069Y-74575994D01*
X146098797Y-74347803D01*
X145870605Y-74160531D01*
X145610263Y-74021375D01*
X145327776Y-73935684D01*
X145034000Y-73906749D01*
X144740223Y-73935684D01*
X144457736Y-74021375D01*
X144197394Y-74160531D01*
X143969203Y-74347803D01*
X143781931Y-74575995D01*
X143764000Y-74609541D01*
X143746069Y-74575994D01*
X143558797Y-74347803D01*
X143330605Y-74160531D01*
X143070263Y-74021375D01*
X142787776Y-73935684D01*
X142494000Y-73906749D01*
X142200223Y-73935684D01*
X141917736Y-74021375D01*
X141657394Y-74160531D01*
X141429203Y-74347803D01*
X141241931Y-74575995D01*
X141224000Y-74609541D01*
X141206069Y-74575994D01*
X141018797Y-74347803D01*
X140790605Y-74160531D01*
X140530263Y-74021375D01*
X140247776Y-73935684D01*
X139954000Y-73906749D01*
X139660223Y-73935684D01*
X139377736Y-74021375D01*
X139117394Y-74160531D01*
X138889203Y-74347803D01*
X138701931Y-74575995D01*
X138680576Y-74615947D01*
X138532486Y-74413271D01*
X138316035Y-74214267D01*
X138064919Y-74061314D01*
X137788789Y-73960291D01*
X137773026Y-73957642D01*
X137541000Y-74078783D01*
X137541000Y-75438000D01*
X137561000Y-75438000D01*
X137561000Y-75692000D01*
X137541000Y-75692000D01*
X137541000Y-77051217D01*
X137773026Y-77172358D01*
X137788789Y-77169709D01*
X138064919Y-77068686D01*
X138316035Y-76915733D01*
X138532486Y-76716729D01*
X138680576Y-76514053D01*
X138701931Y-76554006D01*
X138889203Y-76782197D01*
X139117395Y-76969469D01*
X139377737Y-77108625D01*
X139660224Y-77194316D01*
X139954000Y-77223251D01*
X140247777Y-77194316D01*
X140530264Y-77108625D01*
X140790606Y-76969469D01*
X141018797Y-76782197D01*
X141206069Y-76554006D01*
X141224000Y-76520459D01*
X141241931Y-76554006D01*
X141429203Y-76782197D01*
X141657395Y-76969469D01*
X141917737Y-77108625D01*
X142200224Y-77194316D01*
X142494000Y-77223251D01*
X142787777Y-77194316D01*
X143070264Y-77108625D01*
X143330606Y-76969469D01*
X143558797Y-76782197D01*
X143746069Y-76554006D01*
X143764000Y-76520459D01*
X143781931Y-76554006D01*
X143969203Y-76782197D01*
X144149000Y-76929753D01*
X144149001Y-79897521D01*
X144144719Y-79941000D01*
X144161805Y-80114490D01*
X144212412Y-80281313D01*
X144294590Y-80435059D01*
X144377468Y-80536046D01*
X144377471Y-80536049D01*
X144405184Y-80569817D01*
X144438952Y-80597530D01*
X149399896Y-85558475D01*
X149363000Y-85743967D01*
X149363000Y-86066033D01*
X149425832Y-86381912D01*
X149549082Y-86679463D01*
X149728013Y-86947252D01*
X149955748Y-87174987D01*
X149955767Y-87175000D01*
X149955748Y-87175013D01*
X149728013Y-87402748D01*
X149622941Y-87560000D01*
X148371476Y-87560000D01*
X148328000Y-87555718D01*
X148284523Y-87560000D01*
X139231469Y-87560000D01*
X139188000Y-87555719D01*
X139144531Y-87560000D01*
X139144523Y-87560000D01*
X139027527Y-87571523D01*
X139014510Y-87572805D01*
X138847686Y-87623411D01*
X138693941Y-87705589D01*
X138592953Y-87788468D01*
X138592951Y-87788470D01*
X138559183Y-87816183D01*
X138531470Y-87849951D01*
X136614525Y-89766897D01*
X136429033Y-89730000D01*
X136106967Y-89730000D01*
X135791088Y-89792832D01*
X135493537Y-89916082D01*
X135225748Y-90095013D01*
X134998013Y-90322748D01*
X134998000Y-90322767D01*
X134997987Y-90322748D01*
X134770252Y-90095013D01*
X134502463Y-89916082D01*
X134204912Y-89792832D01*
X133889033Y-89730000D01*
X133566967Y-89730000D01*
X133251088Y-89792832D01*
X132953537Y-89916082D01*
X132685748Y-90095013D01*
X132458013Y-90322748D01*
X132352941Y-90480000D01*
X132041465Y-90480000D01*
X131997999Y-90475719D01*
X131954533Y-90480000D01*
X131954523Y-90480000D01*
X131824510Y-90492805D01*
X131657687Y-90543411D01*
X131503941Y-90625589D01*
X131503939Y-90625590D01*
X131503940Y-90625590D01*
X131402953Y-90708468D01*
X131402951Y-90708470D01*
X131369183Y-90736183D01*
X131341470Y-90769951D01*
X126174439Y-95936983D01*
X126139335Y-95930000D01*
X125856665Y-95930000D01*
X125579426Y-95985147D01*
X125318273Y-96093320D01*
X125083241Y-96250363D01*
X124883363Y-96450241D01*
X124726320Y-96685273D01*
X124618147Y-96946426D01*
X124563000Y-97223665D01*
X124563000Y-97506335D01*
X124618147Y-97783574D01*
X124726320Y-98044727D01*
X124883363Y-98279759D01*
X125083241Y-98479637D01*
X125318273Y-98636680D01*
X125579426Y-98744853D01*
X125856665Y-98800000D01*
X126139335Y-98800000D01*
X126416574Y-98744853D01*
X126677727Y-98636680D01*
X126912759Y-98479637D01*
X127112637Y-98279759D01*
X127269680Y-98044727D01*
X127377853Y-97783574D01*
X127433000Y-97506335D01*
X127433000Y-97223665D01*
X127426017Y-97188561D01*
X132357602Y-92256977D01*
X132458013Y-92407252D01*
X132685748Y-92634987D01*
X132953537Y-92813918D01*
X133251088Y-92937168D01*
X133566967Y-93000000D01*
X133889033Y-93000000D01*
X134204912Y-92937168D01*
X134502463Y-92813918D01*
X134770252Y-92634987D01*
X134997987Y-92407252D01*
X134998000Y-92407233D01*
X134998013Y-92407252D01*
X135225748Y-92634987D01*
X135493537Y-92813918D01*
X135791088Y-92937168D01*
X136106967Y-93000000D01*
X136429033Y-93000000D01*
X136744912Y-92937168D01*
X137042463Y-92813918D01*
X137310252Y-92634987D01*
X137537987Y-92407252D01*
X137716918Y-92139463D01*
X137840168Y-91841912D01*
X137903000Y-91526033D01*
X137903000Y-91203967D01*
X137866103Y-91018475D01*
X139554579Y-89330000D01*
X147443000Y-89330000D01*
X147443001Y-93241521D01*
X147438719Y-93285000D01*
X147455805Y-93458490D01*
X147506412Y-93625313D01*
X147588590Y-93779059D01*
X147671468Y-93880046D01*
X147671471Y-93880049D01*
X147699184Y-93913817D01*
X147732951Y-93941529D01*
X148501470Y-94710049D01*
X148529183Y-94743817D01*
X148562951Y-94771530D01*
X148562953Y-94771532D01*
X148603016Y-94804411D01*
X148663941Y-94854411D01*
X148817687Y-94936589D01*
X148984510Y-94987195D01*
X149114523Y-95000000D01*
X149114533Y-95000000D01*
X149157999Y-95004281D01*
X149201465Y-95000000D01*
X151954531Y-95000000D01*
X151998000Y-95004281D01*
X152041469Y-95000000D01*
X152041477Y-95000000D01*
X152171490Y-94987195D01*
X152338313Y-94936589D01*
X152492059Y-94854411D01*
X152626817Y-94743817D01*
X152654534Y-94710044D01*
X154093050Y-93271529D01*
X154126817Y-93243817D01*
X154237411Y-93109059D01*
X154319589Y-92955313D01*
X154370195Y-92788490D01*
X154383000Y-92658477D01*
X154383000Y-92658467D01*
X154387281Y-92615001D01*
X154383000Y-92571535D01*
X154383000Y-92470458D01*
X154413000Y-92495078D01*
X154413001Y-93698420D01*
X151402958Y-96708464D01*
X151402953Y-96708468D01*
X151174439Y-96936983D01*
X151139335Y-96930000D01*
X150856665Y-96930000D01*
X150579426Y-96985147D01*
X150318273Y-97093320D01*
X150083241Y-97250363D01*
X149883363Y-97450241D01*
X149726320Y-97685273D01*
X149618147Y-97946426D01*
X149563000Y-98223665D01*
X149563000Y-98506335D01*
X149569983Y-98541438D01*
X141901421Y-106210001D01*
X140876072Y-106210001D01*
X140876072Y-104555000D01*
X140863812Y-104430518D01*
X140827502Y-104310820D01*
X140768537Y-104200506D01*
X140689185Y-104103815D01*
X140592494Y-104024463D01*
X140482180Y-103965498D01*
X140362482Y-103929188D01*
X140238000Y-103916928D01*
X138238000Y-103916928D01*
X138113518Y-103929188D01*
X137993820Y-103965498D01*
X137883506Y-104024463D01*
X137786815Y-104103815D01*
X137707463Y-104200506D01*
X137648498Y-104310820D01*
X137612188Y-104430518D01*
X137599928Y-104555000D01*
X137599928Y-106555000D01*
X137612188Y-106679482D01*
X137648498Y-106799180D01*
X137653983Y-106809441D01*
X134583000Y-103738459D01*
X134583000Y-102495078D01*
X134717608Y-102384608D01*
X134896932Y-102166101D01*
X135030182Y-101916808D01*
X135112236Y-101646309D01*
X135139943Y-101365000D01*
X135112236Y-101083691D01*
X135030182Y-100813192D01*
X134896932Y-100563899D01*
X134717608Y-100345392D01*
X134499101Y-100166068D01*
X134368380Y-100096196D01*
X135414578Y-99049999D01*
X137854532Y-99049999D01*
X137898001Y-99054280D01*
X137941470Y-99049999D01*
X137941478Y-99049999D01*
X138071491Y-99037194D01*
X138238314Y-98986588D01*
X138392060Y-98904410D01*
X138526818Y-98793816D01*
X138529653Y-98790362D01*
X138627508Y-98800000D01*
X138768492Y-98800000D01*
X138979309Y-98779236D01*
X139249808Y-98697182D01*
X139499101Y-98563932D01*
X139717608Y-98384608D01*
X139896932Y-98166101D01*
X140030182Y-97916808D01*
X140112236Y-97646309D01*
X140139943Y-97365000D01*
X140112236Y-97083691D01*
X140030182Y-96813192D01*
X139896932Y-96563899D01*
X139717608Y-96345392D01*
X139499101Y-96166068D01*
X139249808Y-96032818D01*
X138979309Y-95950764D01*
X138768492Y-95930000D01*
X138627508Y-95930000D01*
X138416691Y-95950764D01*
X138146192Y-96032818D01*
X137896899Y-96166068D01*
X137678392Y-96345392D01*
X137499068Y-96563899D01*
X137365818Y-96813192D01*
X137283764Y-97083691D01*
X137264429Y-97279999D01*
X135091464Y-97279999D01*
X135047998Y-97275718D01*
X135004532Y-97279999D01*
X135004522Y-97279999D01*
X134874509Y-97292804D01*
X134707686Y-97343410D01*
X134553940Y-97425588D01*
X134553938Y-97425589D01*
X134553939Y-97425589D01*
X134452952Y-97508467D01*
X134452950Y-97508469D01*
X134419182Y-97536182D01*
X134391469Y-97569950D01*
X131852955Y-100108465D01*
X131819182Y-100136182D01*
X131708588Y-100270941D01*
X131626410Y-100424687D01*
X131575804Y-100591510D01*
X131562999Y-100721523D01*
X131562999Y-100721530D01*
X131558718Y-100764999D01*
X131562999Y-100808468D01*
X131563000Y-104940150D01*
X131558718Y-104983629D01*
X131575804Y-105157119D01*
X131626411Y-105323942D01*
X131653856Y-105375289D01*
X131499068Y-105563899D01*
X131365818Y-105813192D01*
X131283764Y-106083691D01*
X131256057Y-106365000D01*
X131273125Y-106538296D01*
X127832958Y-109978464D01*
X127832953Y-109978468D01*
X127832951Y-109978470D01*
X127799183Y-110006183D01*
X127771470Y-110039951D01*
X127331422Y-110480000D01*
X123632521Y-110480000D01*
X123612637Y-110450241D01*
X123412759Y-110250363D01*
X123177727Y-110093320D01*
X122916574Y-109985147D01*
X122639335Y-109930000D01*
X122356665Y-109930000D01*
X122079426Y-109985147D01*
X121818273Y-110093320D01*
X121583241Y-110250363D01*
X121383363Y-110450241D01*
X121249308Y-110650869D01*
X121234671Y-110623486D01*
X120990702Y-110551903D01*
X120177605Y-111365000D01*
X120990702Y-112178097D01*
X121234671Y-112106514D01*
X121248324Y-112077659D01*
X121383363Y-112279759D01*
X121583241Y-112479637D01*
X121818273Y-112636680D01*
X122079426Y-112744853D01*
X122356665Y-112800000D01*
X122639335Y-112800000D01*
X122916574Y-112744853D01*
X123177727Y-112636680D01*
X123412759Y-112479637D01*
X123612637Y-112279759D01*
X123632521Y-112250000D01*
X127654531Y-112250000D01*
X127698000Y-112254281D01*
X127741469Y-112250000D01*
X127741477Y-112250000D01*
X127871490Y-112237195D01*
X128038313Y-112186589D01*
X128192059Y-112104411D01*
X128326817Y-111993817D01*
X128354534Y-111960044D01*
X128680282Y-111634296D01*
X128794579Y-111520000D01*
X137862941Y-111520000D01*
X137968013Y-111677252D01*
X138195748Y-111904987D01*
X138304600Y-111977720D01*
X138282192Y-112039587D01*
X139238000Y-112995395D01*
X140193808Y-112039587D01*
X140171400Y-111977720D01*
X140280252Y-111904987D01*
X140507987Y-111677252D01*
X140686918Y-111409463D01*
X140810168Y-111111912D01*
X140873000Y-110796033D01*
X140873000Y-110473967D01*
X140810168Y-110158088D01*
X140686918Y-109860537D01*
X140507987Y-109592748D01*
X140280252Y-109365013D01*
X140280233Y-109365000D01*
X140280252Y-109364987D01*
X140507987Y-109137252D01*
X140686918Y-108869463D01*
X140810168Y-108571912D01*
X140873000Y-108256033D01*
X140873000Y-107980001D01*
X142224530Y-107980001D01*
X142267999Y-107984282D01*
X142311468Y-107980001D01*
X142311476Y-107980001D01*
X142441489Y-107967196D01*
X142608312Y-107916590D01*
X142762058Y-107834412D01*
X142896816Y-107723818D01*
X142924533Y-107690045D01*
X145123000Y-105491578D01*
X145123000Y-105716033D01*
X145185832Y-106031912D01*
X145309082Y-106329463D01*
X145488013Y-106597252D01*
X145715748Y-106824987D01*
X145715767Y-106825000D01*
X145715748Y-106825013D01*
X145488013Y-107052748D01*
X145309082Y-107320537D01*
X145185832Y-107618088D01*
X145123000Y-107933967D01*
X145123000Y-108256033D01*
X145159897Y-108441525D01*
X144712955Y-108888467D01*
X144679182Y-108916184D01*
X144568588Y-109050943D01*
X144486410Y-109204689D01*
X144472555Y-109250363D01*
X144443728Y-109345392D01*
X144435804Y-109371512D01*
X144422999Y-109501525D01*
X144422999Y-109501532D01*
X144418718Y-109545001D01*
X144422999Y-109588470D01*
X144423000Y-119839120D01*
X144418718Y-119882599D01*
X144435804Y-120056089D01*
X144486411Y-120222912D01*
X144568589Y-120376658D01*
X144651467Y-120477645D01*
X144651470Y-120477648D01*
X144679183Y-120511416D01*
X144712950Y-120539129D01*
X146360066Y-122186244D01*
X146264223Y-122195684D01*
X145981736Y-122281375D01*
X145721394Y-122420531D01*
X145493203Y-122607803D01*
X145305931Y-122835995D01*
X145288000Y-122869541D01*
X145270069Y-122835994D01*
X145082797Y-122607803D01*
X144854605Y-122420531D01*
X144594263Y-122281375D01*
X144311776Y-122195684D01*
X144018000Y-122166749D01*
X143724223Y-122195684D01*
X143441736Y-122281375D01*
X143181394Y-122420531D01*
X142953203Y-122607803D01*
X142765931Y-122835995D01*
X142748000Y-122869541D01*
X142730069Y-122835994D01*
X142542797Y-122607803D01*
X142314605Y-122420531D01*
X142054263Y-122281375D01*
X141771776Y-122195684D01*
X141478000Y-122166749D01*
X141184223Y-122195684D01*
X140901736Y-122281375D01*
X140641394Y-122420531D01*
X140413203Y-122607803D01*
X140225931Y-122835995D01*
X140208000Y-122869541D01*
X140190069Y-122835994D01*
X140002797Y-122607803D01*
X139774605Y-122420531D01*
X139514263Y-122281375D01*
X139231776Y-122195684D01*
X138938000Y-122166749D01*
X138644223Y-122195684D01*
X138361736Y-122281375D01*
X138101394Y-122420531D01*
X137873203Y-122607803D01*
X137685931Y-122835995D01*
X137546775Y-123096337D01*
X137461084Y-123378824D01*
X137439400Y-123598982D01*
X137439400Y-124051019D01*
X137461084Y-124271177D01*
X137546775Y-124553664D01*
X137685931Y-124814006D01*
X137873203Y-125042197D01*
X138101395Y-125229469D01*
X138361737Y-125368625D01*
X138644224Y-125454316D01*
X138938000Y-125483251D01*
X139231777Y-125454316D01*
X139514264Y-125368625D01*
X139774606Y-125229469D01*
X140002797Y-125042197D01*
X140190069Y-124814006D01*
X140208000Y-124780459D01*
X140225931Y-124814006D01*
X140413203Y-125042197D01*
X140641395Y-125229469D01*
X140901737Y-125368625D01*
X141184224Y-125454316D01*
X141478000Y-125483251D01*
X141771777Y-125454316D01*
X142054264Y-125368625D01*
X142314606Y-125229469D01*
X142542797Y-125042197D01*
X142730069Y-124814006D01*
X142748000Y-124780459D01*
X142765931Y-124814006D01*
X142953203Y-125042197D01*
X143181395Y-125229469D01*
X143441737Y-125368625D01*
X143724224Y-125454316D01*
X144018000Y-125483251D01*
X144311777Y-125454316D01*
X144594264Y-125368625D01*
X144854606Y-125229469D01*
X145082797Y-125042197D01*
X145270069Y-124814006D01*
X145288000Y-124780459D01*
X145305931Y-124814006D01*
X145493203Y-125042197D01*
X145721395Y-125229469D01*
X145981737Y-125368625D01*
X146264224Y-125454316D01*
X146558000Y-125483251D01*
X146851777Y-125454316D01*
X147134264Y-125368625D01*
X147394606Y-125229469D01*
X147622797Y-125042197D01*
X147810069Y-124814006D01*
X147828000Y-124780459D01*
X147845931Y-124814006D01*
X148033203Y-125042197D01*
X148261395Y-125229469D01*
X148521737Y-125368625D01*
X148804224Y-125454316D01*
X149098000Y-125483251D01*
X149391777Y-125454316D01*
X149674264Y-125368625D01*
X149934606Y-125229469D01*
X150162797Y-125042197D01*
X150350069Y-124814006D01*
X150371424Y-124774053D01*
X150519514Y-124976729D01*
X150735965Y-125175733D01*
X150987081Y-125328686D01*
X151263211Y-125429709D01*
X151278974Y-125432358D01*
X151511000Y-125311217D01*
X151511000Y-123952000D01*
X151765000Y-123952000D01*
X151765000Y-125311217D01*
X151997026Y-125432358D01*
X152012789Y-125429709D01*
X152288919Y-125328686D01*
X152540035Y-125175733D01*
X152756486Y-124976729D01*
X152908000Y-124769367D01*
X153059514Y-124976729D01*
X153275965Y-125175733D01*
X153527081Y-125328686D01*
X153803211Y-125429709D01*
X153818974Y-125432358D01*
X154051000Y-125311217D01*
X154051000Y-123952000D01*
X151765000Y-123952000D01*
X151511000Y-123952000D01*
X151491000Y-123952000D01*
X151491000Y-123698000D01*
X151511000Y-123698000D01*
X151511000Y-122338783D01*
X151765000Y-122338783D01*
X151765000Y-123698000D01*
X154051000Y-123698000D01*
X154051000Y-122338783D01*
X154305000Y-122338783D01*
X154305000Y-123698000D01*
X154325000Y-123698000D01*
X154325000Y-123952000D01*
X154305000Y-123952000D01*
X154305000Y-125311217D01*
X154537026Y-125432358D01*
X154552789Y-125429709D01*
X154828919Y-125328686D01*
X155080035Y-125175733D01*
X155296486Y-124976729D01*
X155444576Y-124774053D01*
X155465931Y-124814006D01*
X155653203Y-125042197D01*
X155881395Y-125229469D01*
X156141737Y-125368625D01*
X156424224Y-125454316D01*
X156718000Y-125483251D01*
X157011777Y-125454316D01*
X157294264Y-125368625D01*
X157554606Y-125229469D01*
X157782797Y-125042197D01*
X157970069Y-124814006D01*
X158109225Y-124553663D01*
X158194916Y-124271176D01*
X158216600Y-124051018D01*
X158216600Y-123598981D01*
X158194916Y-123378823D01*
X158109225Y-123096336D01*
X157970069Y-122835994D01*
X157782797Y-122607803D01*
X157554605Y-122420531D01*
X157294263Y-122281375D01*
X157011776Y-122195684D01*
X156718000Y-122166749D01*
X156424223Y-122195684D01*
X156141736Y-122281375D01*
X155881394Y-122420531D01*
X155653203Y-122607803D01*
X155465931Y-122835995D01*
X155444576Y-122875947D01*
X155296486Y-122673271D01*
X155080035Y-122474267D01*
X154828919Y-122321314D01*
X154552789Y-122220291D01*
X154537026Y-122217642D01*
X154305000Y-122338783D01*
X154051000Y-122338783D01*
X153818974Y-122217642D01*
X153803211Y-122220291D01*
X153527081Y-122321314D01*
X153275965Y-122474267D01*
X153059514Y-122673271D01*
X152908000Y-122880633D01*
X152756486Y-122673271D01*
X152540035Y-122474267D01*
X152288919Y-122321314D01*
X152012789Y-122220291D01*
X151997026Y-122217642D01*
X151765000Y-122338783D01*
X151511000Y-122338783D01*
X151278974Y-122217642D01*
X151263211Y-122220291D01*
X150987081Y-122321314D01*
X150735965Y-122474267D01*
X150519514Y-122673271D01*
X150371424Y-122875947D01*
X150350069Y-122835994D01*
X150162797Y-122607803D01*
X149934605Y-122420531D01*
X149674263Y-122281375D01*
X149391776Y-122195684D01*
X149098000Y-122166749D01*
X148866526Y-122189548D01*
X146192999Y-119516021D01*
X146192999Y-114710680D01*
X146281088Y-114747168D01*
X146596967Y-114810000D01*
X146919033Y-114810000D01*
X147234912Y-114747168D01*
X147532463Y-114623918D01*
X147800252Y-114444987D01*
X148027987Y-114217252D01*
X148206918Y-113949463D01*
X148330168Y-113651912D01*
X148393000Y-113336033D01*
X148393000Y-113013967D01*
X148330168Y-112698088D01*
X148206918Y-112400537D01*
X148027987Y-112132748D01*
X147800252Y-111905013D01*
X147800233Y-111905000D01*
X147800252Y-111904987D01*
X148027987Y-111677252D01*
X148133059Y-111520000D01*
X151443368Y-111520000D01*
X151496899Y-111563932D01*
X151746192Y-111697182D01*
X152016691Y-111779236D01*
X152227508Y-111800000D01*
X152368492Y-111800000D01*
X152579309Y-111779236D01*
X152849808Y-111697182D01*
X153099101Y-111563932D01*
X153317608Y-111384608D01*
X153496932Y-111166101D01*
X153630182Y-110916808D01*
X153712236Y-110646309D01*
X153739943Y-110365000D01*
X153712236Y-110083691D01*
X153630182Y-109813192D01*
X153496932Y-109563899D01*
X153317608Y-109345392D01*
X153183000Y-109234922D01*
X153183000Y-102431578D01*
X155821561Y-99793017D01*
X155856665Y-99800000D01*
X156139335Y-99800000D01*
X156416574Y-99744853D01*
X156677727Y-99636680D01*
X156912759Y-99479637D01*
X157112637Y-99279759D01*
X157269680Y-99044727D01*
X157377853Y-98783574D01*
X157433000Y-98506335D01*
X157433000Y-98450001D01*
X158304520Y-98450001D01*
X158347989Y-98454282D01*
X158391458Y-98450001D01*
X158391466Y-98450001D01*
X158521479Y-98437196D01*
X158688302Y-98386590D01*
X158842048Y-98304412D01*
X158976806Y-98193818D01*
X159004523Y-98160045D01*
X159843050Y-97321519D01*
X159876817Y-97293807D01*
X159987411Y-97159049D01*
X160069589Y-97005303D01*
X160120195Y-96838480D01*
X160133000Y-96708467D01*
X160133000Y-96708459D01*
X160137281Y-96664990D01*
X160133000Y-96621521D01*
X160133000Y-87981578D01*
X161614579Y-86500000D01*
X162631422Y-86500000D01*
X163113000Y-86981579D01*
X163113000Y-87321531D01*
X163108719Y-87365000D01*
X163113000Y-87408469D01*
X163113000Y-87408477D01*
X163120753Y-87487195D01*
X163125805Y-87538490D01*
X163176412Y-87705313D01*
X163258590Y-87859059D01*
X163341468Y-87960046D01*
X163341471Y-87960049D01*
X163369184Y-87993817D01*
X163402951Y-88021530D01*
X166569983Y-91188561D01*
X166563000Y-91223665D01*
X166563000Y-91506335D01*
X166618147Y-91783574D01*
X166726320Y-92044727D01*
X166883363Y-92279759D01*
X167083241Y-92479637D01*
X167318273Y-92636680D01*
X167579426Y-92744853D01*
X167856665Y-92800000D01*
X168139335Y-92800000D01*
X168416574Y-92744853D01*
X168677727Y-92636680D01*
X168912759Y-92479637D01*
X169112637Y-92279759D01*
X169269680Y-92044727D01*
X169315509Y-91934087D01*
X170863000Y-93481579D01*
X170863001Y-101940144D01*
X170863000Y-101940154D01*
X170863000Y-101980479D01*
X170833241Y-102000363D01*
X170633363Y-102200241D01*
X170499308Y-102400869D01*
X170484671Y-102373486D01*
X170240702Y-102301903D01*
X169427605Y-103115000D01*
X170240702Y-103928097D01*
X170484671Y-103856514D01*
X170498324Y-103827659D01*
X170633363Y-104029759D01*
X170833241Y-104229637D01*
X170863000Y-104249521D01*
X170863001Y-108920000D01*
X170836967Y-108920000D01*
X170521088Y-108982832D01*
X170223537Y-109106082D01*
X169955748Y-109285013D01*
X169728013Y-109512748D01*
X169549082Y-109780537D01*
X169425832Y-110078088D01*
X169363000Y-110393967D01*
X169363000Y-110716033D01*
X169425832Y-111031912D01*
X169549082Y-111329463D01*
X169728013Y-111597252D01*
X169955748Y-111824987D01*
X170064600Y-111897720D01*
X170042192Y-111959587D01*
X170998000Y-112915395D01*
X171953808Y-111959587D01*
X171931400Y-111897720D01*
X172040252Y-111824987D01*
X172267987Y-111597252D01*
X172446918Y-111329463D01*
X172570168Y-111031912D01*
X172633000Y-110716033D01*
X172633000Y-110393967D01*
X172578015Y-110117537D01*
X172620195Y-109978490D01*
X172633000Y-109848477D01*
X172633000Y-109848467D01*
X172637281Y-109805001D01*
X172633000Y-109761535D01*
X172633000Y-104249521D01*
X172662759Y-104229637D01*
X172862637Y-104029759D01*
X173019680Y-103794727D01*
X173127853Y-103533574D01*
X173183000Y-103256335D01*
X173183000Y-102973665D01*
X173127853Y-102696426D01*
X173019680Y-102435273D01*
X172862637Y-102200241D01*
X172662759Y-102000363D01*
X172633000Y-101980479D01*
X172633000Y-93158469D01*
X172637281Y-93115000D01*
X172633000Y-93071531D01*
X172633000Y-93071523D01*
X172620195Y-92941510D01*
X172574520Y-92790941D01*
X172569589Y-92774686D01*
X172487411Y-92620941D01*
X172404532Y-92519953D01*
X172404530Y-92519951D01*
X172376817Y-92486183D01*
X172343050Y-92458471D01*
X168554533Y-88669955D01*
X168526816Y-88636182D01*
X168392058Y-88525588D01*
X168238312Y-88443410D01*
X168071489Y-88392804D01*
X167941476Y-88379999D01*
X167941468Y-88379999D01*
X167897999Y-88375718D01*
X167854530Y-88379999D01*
X167764578Y-88379999D01*
X166073000Y-86688422D01*
X166073000Y-85740059D01*
X166230252Y-85634987D01*
X166364826Y-85500413D01*
X166772192Y-85500413D01*
X166867956Y-85764814D01*
X167157571Y-85905704D01*
X167469108Y-85987384D01*
X167790595Y-86006718D01*
X168109675Y-85962961D01*
X168414088Y-85857795D01*
X168588044Y-85764814D01*
X168683808Y-85500413D01*
X167728000Y-84544605D01*
X166772192Y-85500413D01*
X166364826Y-85500413D01*
X166457987Y-85407252D01*
X166530720Y-85298400D01*
X166592587Y-85320808D01*
X167548395Y-84365000D01*
X166592587Y-83409192D01*
X166530720Y-83431600D01*
X166457987Y-83322748D01*
X166364826Y-83229587D01*
X166772192Y-83229587D01*
X167728000Y-84185395D01*
X168683808Y-83229587D01*
X168588044Y-82965186D01*
X168298429Y-82824296D01*
X167986892Y-82742616D01*
X167665405Y-82723282D01*
X167346325Y-82767039D01*
X167041912Y-82872205D01*
X166867956Y-82965186D01*
X166772192Y-83229587D01*
X166364826Y-83229587D01*
X166230252Y-83095013D01*
X165962463Y-82916082D01*
X165664912Y-82792832D01*
X165349033Y-82730000D01*
X165026967Y-82730000D01*
X164711088Y-82792832D01*
X164413537Y-82916082D01*
X164145748Y-83095013D01*
X163918013Y-83322748D01*
X163812941Y-83480000D01*
X160491467Y-83480000D01*
X160447998Y-83475719D01*
X160404529Y-83480000D01*
X160404521Y-83480000D01*
X160274508Y-83492805D01*
X160107684Y-83543411D01*
X159953939Y-83625589D01*
X159852951Y-83708468D01*
X159852949Y-83708470D01*
X159819181Y-83736183D01*
X159791468Y-83769951D01*
X155356421Y-88204999D01*
X155066466Y-88204999D01*
X155023000Y-88200718D01*
X154979534Y-88204999D01*
X154979524Y-88204999D01*
X154849511Y-88217804D01*
X154682688Y-88268410D01*
X154528942Y-88350588D01*
X154528940Y-88350589D01*
X154528941Y-88350589D01*
X154427954Y-88433467D01*
X154427952Y-88433469D01*
X154394184Y-88461182D01*
X154366471Y-88494950D01*
X152902951Y-89958471D01*
X152869184Y-89986183D01*
X152841471Y-90019951D01*
X152841468Y-90019954D01*
X152758590Y-90120941D01*
X152676412Y-90274687D01*
X152625805Y-90441510D01*
X152608719Y-90615000D01*
X152613001Y-90658479D01*
X152613001Y-90727582D01*
X152595961Y-90603325D01*
X152490795Y-90298912D01*
X152397814Y-90124956D01*
X152133413Y-90029192D01*
X151177605Y-90985000D01*
X152133413Y-91940808D01*
X152397814Y-91845044D01*
X152538704Y-91555429D01*
X152613001Y-91272053D01*
X152613000Y-92248421D01*
X151631422Y-93230000D01*
X149524579Y-93230000D01*
X149213000Y-92918422D01*
X149213000Y-92120413D01*
X150042192Y-92120413D01*
X150137956Y-92384814D01*
X150427571Y-92525704D01*
X150739108Y-92607384D01*
X151060595Y-92626718D01*
X151379675Y-92582961D01*
X151684088Y-92477795D01*
X151858044Y-92384814D01*
X151953808Y-92120413D01*
X150998000Y-91164605D01*
X150042192Y-92120413D01*
X149213000Y-92120413D01*
X149213000Y-91047595D01*
X149356282Y-91047595D01*
X149400039Y-91366675D01*
X149505205Y-91671088D01*
X149598186Y-91845044D01*
X149862587Y-91940808D01*
X150818395Y-90985000D01*
X149862587Y-90029192D01*
X149598186Y-90124956D01*
X149457296Y-90414571D01*
X149375616Y-90726108D01*
X149356282Y-91047595D01*
X149213000Y-91047595D01*
X149213000Y-89330000D01*
X149622941Y-89330000D01*
X149728013Y-89487252D01*
X149955748Y-89714987D01*
X150064600Y-89787720D01*
X150042192Y-89849587D01*
X150998000Y-90805395D01*
X151953808Y-89849587D01*
X151931400Y-89787720D01*
X152040252Y-89714987D01*
X152267987Y-89487252D01*
X152446918Y-89219463D01*
X152570168Y-88921912D01*
X152633000Y-88606033D01*
X152633000Y-88283967D01*
X152570168Y-87968088D01*
X152446918Y-87670537D01*
X152267987Y-87402748D01*
X152040252Y-87175013D01*
X152040233Y-87175000D01*
X152040252Y-87174987D01*
X152267987Y-86947252D01*
X152446918Y-86679463D01*
X152570168Y-86381912D01*
X152633000Y-86066033D01*
X152633000Y-85743967D01*
X152570168Y-85428088D01*
X152446918Y-85130537D01*
X152267987Y-84862748D01*
X152040252Y-84635013D01*
X152040233Y-84635000D01*
X152040252Y-84634987D01*
X152267987Y-84407252D01*
X152446918Y-84139463D01*
X152570168Y-83841912D01*
X152633000Y-83526033D01*
X152633000Y-83203967D01*
X152570168Y-82888088D01*
X152446918Y-82590537D01*
X152267987Y-82322748D01*
X152040252Y-82095013D01*
X152040233Y-82095000D01*
X152040252Y-82094987D01*
X152267987Y-81867252D01*
X152373059Y-81710000D01*
X164266931Y-81710000D01*
X164310400Y-81714281D01*
X164353869Y-81710000D01*
X164353877Y-81710000D01*
X164483890Y-81697195D01*
X164650713Y-81646589D01*
X164804459Y-81564411D01*
X164939217Y-81453817D01*
X164966934Y-81420044D01*
X169186526Y-77200452D01*
X169418000Y-77223251D01*
X169711777Y-77194316D01*
X169994264Y-77108625D01*
X170254606Y-76969469D01*
X170482797Y-76782197D01*
X170670069Y-76554006D01*
X170688000Y-76520459D01*
X170705931Y-76554006D01*
X170893203Y-76782197D01*
X171121395Y-76969469D01*
X171381737Y-77108625D01*
X171664224Y-77194316D01*
X171958000Y-77223251D01*
X172251777Y-77194316D01*
X172534264Y-77108625D01*
X172794606Y-76969469D01*
X173022797Y-76782197D01*
X173210069Y-76554006D01*
X173228000Y-76520459D01*
X173245931Y-76554006D01*
X173433203Y-76782197D01*
X173613001Y-76929753D01*
X173613000Y-79768421D01*
X170614525Y-82766897D01*
X170429033Y-82730000D01*
X170106967Y-82730000D01*
X169791088Y-82792832D01*
X169493537Y-82916082D01*
X169225748Y-83095013D01*
X168998013Y-83322748D01*
X168925280Y-83431600D01*
X168863413Y-83409192D01*
X167907605Y-84365000D01*
X168863413Y-85320808D01*
X168925280Y-85298400D01*
X168998013Y-85407252D01*
X169225748Y-85634987D01*
X169493537Y-85813918D01*
X169791088Y-85937168D01*
X170106967Y-86000000D01*
X170429033Y-86000000D01*
X170744912Y-85937168D01*
X171042463Y-85813918D01*
X171310252Y-85634987D01*
X171537987Y-85407252D01*
X171538000Y-85407233D01*
X171538013Y-85407252D01*
X171765748Y-85634987D01*
X172033537Y-85813918D01*
X172331088Y-85937168D01*
X172646967Y-86000000D01*
X172969033Y-86000000D01*
X173284912Y-85937168D01*
X173582463Y-85813918D01*
X173850252Y-85634987D01*
X174077987Y-85407252D01*
X174256918Y-85139463D01*
X174380168Y-84841912D01*
X174443000Y-84526033D01*
X174443000Y-84203967D01*
X174406197Y-84018946D01*
X174436816Y-83993818D01*
X174547410Y-83859060D01*
X174595512Y-83769066D01*
X176328000Y-82036578D01*
X176328000Y-85944125D01*
X176324565Y-85979000D01*
X176328000Y-86013875D01*
X176328000Y-86013876D01*
X176338273Y-86118183D01*
X176378872Y-86252019D01*
X176444800Y-86375362D01*
X176533525Y-86483474D01*
X176560617Y-86505708D01*
X178868001Y-88813093D01*
X178868001Y-88863294D01*
X178738113Y-88733406D01*
X178301298Y-88441536D01*
X177815935Y-88240492D01*
X177300677Y-88138000D01*
X176775323Y-88138000D01*
X176260065Y-88240492D01*
X175774702Y-88441536D01*
X175337887Y-88733406D01*
X174966406Y-89104887D01*
X174674536Y-89541702D01*
X174473492Y-90027065D01*
X174371000Y-90542323D01*
X174371000Y-91067677D01*
X174473492Y-91582935D01*
X174674536Y-92068298D01*
X174966406Y-92505113D01*
X175337887Y-92876594D01*
X175774702Y-93168464D01*
X176260065Y-93369508D01*
X176775323Y-93472000D01*
X177300677Y-93472000D01*
X177815935Y-93369508D01*
X178301298Y-93168464D01*
X178738113Y-92876594D01*
X178868001Y-92746706D01*
X178868000Y-116803293D01*
X178738113Y-116673406D01*
X178301298Y-116381536D01*
X177815935Y-116180492D01*
X177300677Y-116078000D01*
X176775323Y-116078000D01*
X176260065Y-116180492D01*
X175774702Y-116381536D01*
X175337887Y-116673406D01*
X174966406Y-117044887D01*
X174674536Y-117481702D01*
X174657473Y-117522895D01*
X173174533Y-116039955D01*
X173146816Y-116006182D01*
X173012058Y-115895588D01*
X172858312Y-115813410D01*
X172691489Y-115762804D01*
X172633000Y-115757043D01*
X172633000Y-115473967D01*
X172570168Y-115158088D01*
X172446918Y-114860537D01*
X172267987Y-114592748D01*
X172040252Y-114365013D01*
X171931400Y-114292280D01*
X171953808Y-114230413D01*
X170998000Y-113274605D01*
X170042192Y-114230413D01*
X170064600Y-114292280D01*
X169955748Y-114365013D01*
X169728013Y-114592748D01*
X169549082Y-114860537D01*
X169425832Y-115158088D01*
X169363000Y-115473967D01*
X169363000Y-115796033D01*
X169425832Y-116111912D01*
X169549082Y-116409463D01*
X169728013Y-116677252D01*
X169955748Y-116904987D01*
X169955767Y-116905000D01*
X169955748Y-116905013D01*
X169728013Y-117132748D01*
X169549082Y-117400537D01*
X169425832Y-117698088D01*
X169363000Y-118013967D01*
X169363000Y-118336033D01*
X169425832Y-118651912D01*
X169549082Y-118949463D01*
X169728013Y-119217252D01*
X169955748Y-119444987D01*
X170113000Y-119550060D01*
X170113001Y-122344842D01*
X169994263Y-122281375D01*
X169711776Y-122195684D01*
X169418000Y-122166749D01*
X169124223Y-122195684D01*
X168841736Y-122281375D01*
X168581394Y-122420531D01*
X168353203Y-122607803D01*
X168165931Y-122835995D01*
X168148000Y-122869541D01*
X168130069Y-122835994D01*
X167942797Y-122607803D01*
X167714605Y-122420531D01*
X167454263Y-122281375D01*
X167171776Y-122195684D01*
X166878000Y-122166749D01*
X166584223Y-122195684D01*
X166301736Y-122281375D01*
X166041394Y-122420531D01*
X165813203Y-122607803D01*
X165625931Y-122835995D01*
X165608000Y-122869541D01*
X165590069Y-122835994D01*
X165402797Y-122607803D01*
X165174605Y-122420531D01*
X164914263Y-122281375D01*
X164631776Y-122195684D01*
X164338000Y-122166749D01*
X164044223Y-122195684D01*
X163761736Y-122281375D01*
X163501394Y-122420531D01*
X163273203Y-122607803D01*
X163085931Y-122835995D01*
X163068000Y-122869541D01*
X163050069Y-122835994D01*
X162862797Y-122607803D01*
X162683000Y-122460248D01*
X162683000Y-113931578D01*
X163456983Y-113157595D01*
X169356282Y-113157595D01*
X169400039Y-113476675D01*
X169505205Y-113781088D01*
X169598186Y-113955044D01*
X169862587Y-114050808D01*
X170818395Y-113095000D01*
X171177605Y-113095000D01*
X172133413Y-114050808D01*
X172397814Y-113955044D01*
X172538704Y-113665429D01*
X172620384Y-113353892D01*
X172639718Y-113032405D01*
X172595961Y-112713325D01*
X172490795Y-112408912D01*
X172397814Y-112234956D01*
X172133413Y-112139192D01*
X171177605Y-113095000D01*
X170818395Y-113095000D01*
X169862587Y-112139192D01*
X169598186Y-112234956D01*
X169457296Y-112524571D01*
X169375616Y-112836108D01*
X169356282Y-113157595D01*
X163456983Y-113157595D01*
X164821561Y-111793017D01*
X164856665Y-111800000D01*
X165139335Y-111800000D01*
X165416574Y-111744853D01*
X165677727Y-111636680D01*
X165912759Y-111479637D01*
X166112637Y-111279759D01*
X166269680Y-111044727D01*
X166377853Y-110783574D01*
X166433000Y-110506335D01*
X166433000Y-110223665D01*
X166377853Y-109946426D01*
X166269680Y-109685273D01*
X166112637Y-109450241D01*
X165912759Y-109250363D01*
X165677727Y-109093320D01*
X165416574Y-108985147D01*
X165139335Y-108930000D01*
X164856665Y-108930000D01*
X164821561Y-108936983D01*
X162383000Y-106498422D01*
X162383000Y-104249521D01*
X162412759Y-104229637D01*
X162534694Y-104107702D01*
X163184903Y-104107702D01*
X163256486Y-104351671D01*
X163511996Y-104472571D01*
X163786184Y-104541300D01*
X164068512Y-104555217D01*
X164348130Y-104513787D01*
X164614292Y-104418603D01*
X164739514Y-104351671D01*
X164811097Y-104107702D01*
X168434903Y-104107702D01*
X168506486Y-104351671D01*
X168761996Y-104472571D01*
X169036184Y-104541300D01*
X169318512Y-104555217D01*
X169598130Y-104513787D01*
X169864292Y-104418603D01*
X169989514Y-104351671D01*
X170061097Y-104107702D01*
X169248000Y-103294605D01*
X168434903Y-104107702D01*
X164811097Y-104107702D01*
X163998000Y-103294605D01*
X163184903Y-104107702D01*
X162534694Y-104107702D01*
X162612637Y-104029759D01*
X162746692Y-103829131D01*
X162761329Y-103856514D01*
X163005298Y-103928097D01*
X163818395Y-103115000D01*
X164177605Y-103115000D01*
X164990702Y-103928097D01*
X165234671Y-103856514D01*
X165355571Y-103601004D01*
X165424300Y-103326816D01*
X165431265Y-103185512D01*
X167807783Y-103185512D01*
X167849213Y-103465130D01*
X167944397Y-103731292D01*
X168011329Y-103856514D01*
X168255298Y-103928097D01*
X169068395Y-103115000D01*
X168255298Y-102301903D01*
X168011329Y-102373486D01*
X167890429Y-102628996D01*
X167821700Y-102903184D01*
X167807783Y-103185512D01*
X165431265Y-103185512D01*
X165438217Y-103044488D01*
X165396787Y-102764870D01*
X165301603Y-102498708D01*
X165234671Y-102373486D01*
X164990702Y-102301903D01*
X164177605Y-103115000D01*
X163818395Y-103115000D01*
X163005298Y-102301903D01*
X162761329Y-102373486D01*
X162747676Y-102402341D01*
X162612637Y-102200241D01*
X162534694Y-102122298D01*
X163184903Y-102122298D01*
X163998000Y-102935395D01*
X164811097Y-102122298D01*
X168434903Y-102122298D01*
X169248000Y-102935395D01*
X170061097Y-102122298D01*
X169989514Y-101878329D01*
X169734004Y-101757429D01*
X169459816Y-101688700D01*
X169177488Y-101674783D01*
X168897870Y-101716213D01*
X168631708Y-101811397D01*
X168506486Y-101878329D01*
X168434903Y-102122298D01*
X164811097Y-102122298D01*
X164739514Y-101878329D01*
X164484004Y-101757429D01*
X164209816Y-101688700D01*
X163927488Y-101674783D01*
X163647870Y-101716213D01*
X163381708Y-101811397D01*
X163256486Y-101878329D01*
X163184903Y-102122298D01*
X162534694Y-102122298D01*
X162412759Y-102000363D01*
X162177727Y-101843320D01*
X161916574Y-101735147D01*
X161639335Y-101680000D01*
X161356665Y-101680000D01*
X161079426Y-101735147D01*
X160818273Y-101843320D01*
X160583241Y-102000363D01*
X160383363Y-102200241D01*
X160226320Y-102435273D01*
X160118147Y-102696426D01*
X160063000Y-102973665D01*
X160063000Y-103256335D01*
X160118147Y-103533574D01*
X160226320Y-103794727D01*
X160383363Y-104029759D01*
X160583241Y-104229637D01*
X160613000Y-104249521D01*
X160613001Y-106821521D01*
X160608719Y-106865000D01*
X160625805Y-107038490D01*
X160676412Y-107205313D01*
X160758590Y-107359059D01*
X160841468Y-107460046D01*
X160841471Y-107460049D01*
X160869184Y-107493817D01*
X160902951Y-107521529D01*
X163569983Y-110188561D01*
X163563000Y-110223665D01*
X163563000Y-110506335D01*
X163569983Y-110541439D01*
X161202951Y-112908471D01*
X161169184Y-112936183D01*
X161141471Y-112969951D01*
X161141468Y-112969954D01*
X161058590Y-113070941D01*
X160976412Y-113224687D01*
X160925805Y-113391510D01*
X160908719Y-113565000D01*
X160913001Y-113608479D01*
X160913000Y-122460247D01*
X160733203Y-122607803D01*
X160545931Y-122835995D01*
X160406775Y-123096337D01*
X160321084Y-123378824D01*
X160299400Y-123598982D01*
X160299400Y-124051019D01*
X160321084Y-124271177D01*
X160406775Y-124553664D01*
X160545931Y-124814006D01*
X160733203Y-125042197D01*
X160961395Y-125229469D01*
X161221737Y-125368625D01*
X161504224Y-125454316D01*
X161798000Y-125483251D01*
X162091777Y-125454316D01*
X162374264Y-125368625D01*
X162634606Y-125229469D01*
X162862797Y-125042197D01*
X163050069Y-124814006D01*
X163068000Y-124780459D01*
X163085931Y-124814006D01*
X163273203Y-125042197D01*
X163501395Y-125229469D01*
X163761737Y-125368625D01*
X164044224Y-125454316D01*
X164338000Y-125483251D01*
X164631777Y-125454316D01*
X164914264Y-125368625D01*
X165174606Y-125229469D01*
X165402797Y-125042197D01*
X165590069Y-124814006D01*
X165608000Y-124780459D01*
X165625931Y-124814006D01*
X165813203Y-125042197D01*
X166041395Y-125229469D01*
X166301737Y-125368625D01*
X166584224Y-125454316D01*
X166878000Y-125483251D01*
X167171777Y-125454316D01*
X167454264Y-125368625D01*
X167714606Y-125229469D01*
X167942797Y-125042197D01*
X168130069Y-124814006D01*
X168148000Y-124780459D01*
X168165931Y-124814006D01*
X168353203Y-125042197D01*
X168581395Y-125229469D01*
X168841737Y-125368625D01*
X169124224Y-125454316D01*
X169418000Y-125483251D01*
X169711777Y-125454316D01*
X169994264Y-125368625D01*
X170254606Y-125229469D01*
X170482797Y-125042197D01*
X170670069Y-124814006D01*
X170688000Y-124780459D01*
X170705931Y-124814006D01*
X170893203Y-125042197D01*
X171121395Y-125229469D01*
X171381737Y-125368625D01*
X171664224Y-125454316D01*
X171958000Y-125483251D01*
X172251777Y-125454316D01*
X172534264Y-125368625D01*
X172794606Y-125229469D01*
X173022797Y-125042197D01*
X173210069Y-124814006D01*
X173228000Y-124780459D01*
X173245931Y-124814006D01*
X173433203Y-125042197D01*
X173661395Y-125229469D01*
X173921737Y-125368625D01*
X174204224Y-125454316D01*
X174498000Y-125483251D01*
X174791777Y-125454316D01*
X175074264Y-125368625D01*
X175334606Y-125229469D01*
X175562797Y-125042197D01*
X175750069Y-124814006D01*
X175889225Y-124553663D01*
X175974916Y-124271176D01*
X175996600Y-124051018D01*
X175996600Y-123598981D01*
X175974916Y-123378823D01*
X175889225Y-123096336D01*
X175750069Y-122835994D01*
X175562797Y-122607803D01*
X175383000Y-122460248D01*
X175383000Y-120846737D01*
X175774702Y-121108464D01*
X176260065Y-121309508D01*
X176775323Y-121412000D01*
X177300677Y-121412000D01*
X177815935Y-121309508D01*
X178301298Y-121108464D01*
X178738113Y-120816594D01*
X178868000Y-120686707D01*
X178868000Y-120990908D01*
X176560617Y-123298292D01*
X176533526Y-123320525D01*
X176511293Y-123347616D01*
X176444801Y-123428637D01*
X176378872Y-123551981D01*
X176338274Y-123685816D01*
X176324565Y-123825000D01*
X176328001Y-123859885D01*
X176328000Y-125655000D01*
X126909707Y-125655000D01*
X127039594Y-125525113D01*
X127331464Y-125088298D01*
X127532508Y-124602935D01*
X127635000Y-124087677D01*
X127635000Y-123562323D01*
X127532508Y-123047065D01*
X127331464Y-122561702D01*
X127039594Y-122124887D01*
X126668113Y-121753406D01*
X126231298Y-121461536D01*
X125745935Y-121260492D01*
X125230677Y-121158000D01*
X124705323Y-121158000D01*
X124190065Y-121260492D01*
X123704702Y-121461536D01*
X123267887Y-121753406D01*
X122896406Y-122124887D01*
X122604536Y-122561702D01*
X122403492Y-123047065D01*
X122301000Y-123562323D01*
X122301000Y-124087677D01*
X122403492Y-124602935D01*
X122604536Y-125088298D01*
X122896406Y-125525113D01*
X123026293Y-125655000D01*
X111708000Y-125655000D01*
X111708000Y-114310413D01*
X138282192Y-114310413D01*
X138377956Y-114574814D01*
X138667571Y-114715704D01*
X138979108Y-114797384D01*
X139300595Y-114816718D01*
X139619675Y-114772961D01*
X139924088Y-114667795D01*
X140098044Y-114574814D01*
X140193808Y-114310413D01*
X139238000Y-113354605D01*
X138282192Y-114310413D01*
X111708000Y-114310413D01*
X111708000Y-113237595D01*
X137596282Y-113237595D01*
X137640039Y-113556675D01*
X137745205Y-113861088D01*
X137838186Y-114035044D01*
X138102587Y-114130808D01*
X139058395Y-113175000D01*
X139417605Y-113175000D01*
X140373413Y-114130808D01*
X140637814Y-114035044D01*
X140778704Y-113745429D01*
X140860384Y-113433892D01*
X140879718Y-113112405D01*
X140835961Y-112793325D01*
X140730795Y-112488912D01*
X140637814Y-112314956D01*
X140373413Y-112219192D01*
X139417605Y-113175000D01*
X139058395Y-113175000D01*
X138102587Y-112219192D01*
X137838186Y-112314956D01*
X137697296Y-112604571D01*
X137615616Y-112916108D01*
X137596282Y-113237595D01*
X111708000Y-113237595D01*
X111708000Y-112357702D01*
X119184903Y-112357702D01*
X119256486Y-112601671D01*
X119511996Y-112722571D01*
X119786184Y-112791300D01*
X120068512Y-112805217D01*
X120348130Y-112763787D01*
X120614292Y-112668603D01*
X120739514Y-112601671D01*
X120811097Y-112357702D01*
X119998000Y-111544605D01*
X119184903Y-112357702D01*
X111708000Y-112357702D01*
X111708000Y-111435512D01*
X118557783Y-111435512D01*
X118599213Y-111715130D01*
X118694397Y-111981292D01*
X118761329Y-112106514D01*
X119005298Y-112178097D01*
X119818395Y-111365000D01*
X119005298Y-110551903D01*
X118761329Y-110623486D01*
X118640429Y-110878996D01*
X118571700Y-111153184D01*
X118557783Y-111435512D01*
X111708000Y-111435512D01*
X111708000Y-110372298D01*
X119184903Y-110372298D01*
X119998000Y-111185395D01*
X120811097Y-110372298D01*
X120739514Y-110128329D01*
X120484004Y-110007429D01*
X120209816Y-109938700D01*
X119927488Y-109924783D01*
X119647870Y-109966213D01*
X119381708Y-110061397D01*
X119256486Y-110128329D01*
X119184903Y-110372298D01*
X111708000Y-110372298D01*
X111708000Y-107357702D01*
X119184903Y-107357702D01*
X119256486Y-107601671D01*
X119511996Y-107722571D01*
X119786184Y-107791300D01*
X120068512Y-107805217D01*
X120348130Y-107763787D01*
X120614292Y-107668603D01*
X120739514Y-107601671D01*
X120811097Y-107357702D01*
X119998000Y-106544605D01*
X119184903Y-107357702D01*
X111708000Y-107357702D01*
X111708000Y-106435512D01*
X118557783Y-106435512D01*
X118599213Y-106715130D01*
X118694397Y-106981292D01*
X118761329Y-107106514D01*
X119005298Y-107178097D01*
X119818395Y-106365000D01*
X120177605Y-106365000D01*
X120990702Y-107178097D01*
X121234671Y-107106514D01*
X121355571Y-106851004D01*
X121424300Y-106576816D01*
X121438217Y-106294488D01*
X121396787Y-106014870D01*
X121301603Y-105748708D01*
X121234671Y-105623486D01*
X120990702Y-105551903D01*
X120177605Y-106365000D01*
X119818395Y-106365000D01*
X119005298Y-105551903D01*
X118761329Y-105623486D01*
X118640429Y-105878996D01*
X118571700Y-106153184D01*
X118557783Y-106435512D01*
X111708000Y-106435512D01*
X111708000Y-105372298D01*
X119184903Y-105372298D01*
X119998000Y-106185395D01*
X120811097Y-105372298D01*
X120739514Y-105128329D01*
X120484004Y-105007429D01*
X120209816Y-104938700D01*
X119927488Y-104924783D01*
X119647870Y-104966213D01*
X119381708Y-105061397D01*
X119256486Y-105128329D01*
X119184903Y-105372298D01*
X111708000Y-105372298D01*
X111708000Y-102357702D01*
X120184903Y-102357702D01*
X120256486Y-102601671D01*
X120511996Y-102722571D01*
X120786184Y-102791300D01*
X121068512Y-102805217D01*
X121348130Y-102763787D01*
X121614292Y-102668603D01*
X121739514Y-102601671D01*
X121811097Y-102357702D01*
X120998000Y-101544605D01*
X120184903Y-102357702D01*
X111708000Y-102357702D01*
X111708000Y-101435512D01*
X119557783Y-101435512D01*
X119599213Y-101715130D01*
X119694397Y-101981292D01*
X119761329Y-102106514D01*
X120005298Y-102178097D01*
X120818395Y-101365000D01*
X121177605Y-101365000D01*
X121990702Y-102178097D01*
X122234671Y-102106514D01*
X122355571Y-101851004D01*
X122424300Y-101576816D01*
X122438217Y-101294488D01*
X122396787Y-101014870D01*
X122301603Y-100748708D01*
X122234671Y-100623486D01*
X121990702Y-100551903D01*
X121177605Y-101365000D01*
X120818395Y-101365000D01*
X120005298Y-100551903D01*
X119761329Y-100623486D01*
X119640429Y-100878996D01*
X119571700Y-101153184D01*
X119557783Y-101435512D01*
X111708000Y-101435512D01*
X111708000Y-100372298D01*
X120184903Y-100372298D01*
X120998000Y-101185395D01*
X121811097Y-100372298D01*
X121739514Y-100128329D01*
X121484004Y-100007429D01*
X121209816Y-99938700D01*
X120927488Y-99924783D01*
X120647870Y-99966213D01*
X120381708Y-100061397D01*
X120256486Y-100128329D01*
X120184903Y-100372298D01*
X111708000Y-100372298D01*
X111708000Y-80825000D01*
X114177286Y-80825000D01*
X114177286Y-84645000D01*
X136318715Y-84645000D01*
X136318715Y-80825000D01*
X114177286Y-80825000D01*
X111708000Y-80825000D01*
X111708000Y-73735000D01*
X124296293Y-73735000D01*
X124166406Y-73864887D01*
M02*
